<svg width="1440" height="894" viewBox="0 0 1440 894" fill="none" xmlns="http://www.w3.org/2000/svg">
<path d="M273 351C13.0001 351 -56.9999 430.5 -37 522.5L-24.9996 803.5H1450C1470.17 654.666 1633 81.4999 1083.5 482C794.189 692.863 533 351 273 351Z" fill="#FACDA5"/>
<path d="M37.2219 529C-305.813 529 -446.985 580.442 -540 691.317L-524.167 972H1421.89C1448.5 823.334 1852.01 417.126 970.672 599.421C515.038 693.664 380.256 529 37.2219 529Z" fill="#F5AB68"/>
<path d="M0 691.819C921.127 691.819 1382.33 782.117 1380.33 132.963C1380.33 123.43 1392.82 123.932 1392.82 132.963C1392.82 360.993 1414.98 516.829 1441 632.621V897H0V691.819Z" fill="url(#paint0_linear_984_2475)"/>
<path d="M1391.57 5.28787C1391.43 5.1522 1391.29 5.01769 1391.15 4.88319C1391.06 4.78962 1390.96 4.69488 1390.86 4.60131C1390.72 4.46915 1390.58 4.33698 1390.44 4.20599C1390.34 4.11125 1390.24 4.01768 1390.14 3.92295C1390 3.79195 1389.85 3.66212 1389.71 3.5323C1389.61 3.43873 1389.5 3.34516 1389.4 3.25276C1389.26 3.12294 1389.11 2.99428 1388.96 2.86563C1388.86 2.77323 1388.76 2.68083 1388.65 2.58843C1388.5 2.4586 1388.35 2.32995 1388.2 2.20129C1388.09 2.11123 1387.99 2.02117 1387.89 1.93228C1387.73 1.79895 1387.57 1.66678 1387.41 1.53345C1387.31 1.44924 1387.21 1.36503 1387.11 1.28199C1386.93 1.13695 1386.75 0.993094 1386.57 0.848063C1386.48 0.777887 1386.4 0.707711 1386.31 0.638705C1386.04 0.425837 1385.78 0.21297 1385.5 0.00244141C1385.23 0.21297 1384.96 0.425837 1384.69 0.638705C1384.6 0.707711 1384.52 0.779057 1384.43 0.848063C1384.25 0.991924 1384.08 1.13695 1383.9 1.28199C1383.8 1.36503 1383.7 1.44924 1383.6 1.53345C1383.44 1.66678 1383.27 1.79895 1383.12 1.93228C1383.01 2.02117 1382.91 2.11123 1382.8 2.20129C1382.65 2.32995 1382.5 2.45977 1382.35 2.5896C1382.25 2.682 1382.14 2.7744 1382.04 2.86796C1381.89 2.99662 1381.74 3.12528 1381.6 3.2551C1381.5 3.34867 1381.39 3.44224 1381.29 3.53698C1381.15 3.6668 1381 3.79663 1380.86 3.92645C1380.76 4.02002 1380.66 4.11476 1380.56 4.2095C1380.42 4.34049 1380.28 4.47266 1380.14 4.60482C1380.04 4.69839 1379.94 4.79313 1379.85 4.8867C1379.71 5.0212 1379.57 5.15571 1379.43 5.29021C1379.33 5.38378 1379.24 5.47618 1379.15 5.56974C1379.01 5.70659 1378.87 5.8446 1378.73 5.98261C1378.64 6.07384 1378.55 6.16624 1378.46 6.25864C1378.32 6.40016 1378.19 6.54168 1378.05 6.6832C1377.96 6.77326 1377.88 6.86215 1377.79 6.95221C1377.65 7.09841 1377.52 7.24461 1377.38 7.39081C1377.3 7.47736 1377.22 7.56392 1377.14 7.65047C1377 7.80251 1376.86 7.95456 1376.72 8.10778C1376.65 8.19082 1376.57 8.27269 1376.5 8.35574C1376.35 8.5148 1376.21 8.67504 1376.07 8.83527C1376.01 8.91247 1375.94 8.98849 1375.87 9.06568C1375.72 9.23411 1375.58 9.4037 1375.43 9.57329C1375.38 9.6423 1375.32 9.7113 1375.26 9.78031C1375.11 9.9616 1374.95 10.1429 1374.8 10.3242C1374.76 10.3827 1374.71 10.4423 1374.66 10.5008C1374.5 10.6984 1374.34 10.8973 1374.18 11.0973C1374.14 11.1406 1374.11 11.1827 1374.07 11.2259C1373.89 11.4517 1373.72 11.6774 1373.54 11.9055C1373.53 11.9219 1373.52 11.9394 1373.5 11.9558C1371.77 14.2073 1370.22 16.5254 1368.85 18.8985C1368.85 18.9009 1368.85 18.9032 1368.84 18.9055C1368.69 19.1652 1368.55 19.426 1368.4 19.6868C1368.4 19.6939 1368.39 19.7009 1368.39 19.7091C1368.25 19.9664 1368.1 20.2237 1367.96 20.481C1367.96 20.4904 1367.95 20.4997 1367.95 20.5091C1367.81 20.7652 1367.67 21.0225 1367.54 21.2798C1367.53 21.2892 1367.53 21.2997 1367.52 21.3091C1367.39 21.5676 1367.26 21.826 1367.13 22.0857L1367.11 22.1102C1366.98 22.3722 1366.85 22.6342 1366.72 22.8974C1366.72 22.9021 1366.72 22.9079 1366.72 22.9126C1366.59 23.1804 1366.46 23.4483 1366.33 23.7173C1372.07 25.5922 1378.58 26.6495 1385.48 26.6495C1392.38 26.6495 1398.92 25.5875 1404.67 23.7068C1404.54 23.4377 1404.41 23.1687 1404.28 22.9009C1404.28 22.8974 1404.28 22.8939 1404.28 22.8904C1404.15 22.626 1404.02 22.3617 1403.88 22.0986C1403.88 22.0915 1403.88 22.0857 1403.88 22.0787C1403.74 21.8178 1403.61 21.557 1403.47 21.2962C1403.47 21.288 1403.47 21.281 1403.46 21.2728C1403.33 21.012 1403.19 20.7523 1403.05 20.4939C1403.05 20.4868 1403.04 20.481 1403.04 20.474C1402.9 20.212 1402.75 19.9512 1402.61 19.6903C1402.61 19.6868 1402.6 19.6833 1402.6 19.6798C1401.12 17.033 1399.43 14.4505 1397.5 11.9511C1397.48 11.9312 1397.47 11.9113 1397.45 11.8914C1397.28 11.6669 1397.1 11.4435 1396.93 11.2201C1396.89 11.1768 1396.86 11.1335 1396.82 11.0903C1396.66 10.8914 1396.5 10.6938 1396.34 10.4961C1396.29 10.4376 1396.24 10.378 1396.2 10.3195C1396.05 10.1382 1395.9 9.95692 1395.74 9.77563C1395.68 9.70663 1395.62 9.63762 1395.57 9.56861C1395.42 9.39902 1395.28 9.22943 1395.13 9.06101C1395.06 8.98381 1394.99 8.90779 1394.93 8.83059C1394.79 8.67036 1394.64 8.51129 1394.5 8.35106C1394.43 8.26918 1394.36 8.18614 1394.28 8.10427C1394.14 7.95105 1394 7.799 1393.86 7.64696C1393.78 7.56041 1393.7 7.47386 1393.62 7.38847C1393.49 7.2411 1393.35 7.0949 1393.21 6.94754C1393.12 6.85865 1393.04 6.76859 1392.95 6.6797C1392.81 6.537 1392.68 6.39548 1392.54 6.25396C1392.45 6.16156 1392.36 6.07033 1392.27 5.97794C1392.13 5.83992 1391.99 5.70191 1391.86 5.56507C1391.76 5.4715 1391.67 5.3791 1391.57 5.2867L1391.57 5.28787Z" fill="#EF7373"/>
<path d="M1384.56 59.8815C1384.25 59.4791 1383.86 59.1949 1383.41 58.9739C1382.91 58.7247 1382.37 58.5622 1381.83 58.423C1381.29 58.2838 1380.74 58.1575 1380.2 58.0136C1379.91 57.9364 1379.62 57.8358 1379.37 57.6545C1379.24 57.5563 1379.13 57.437 1379.09 57.2709C1379.01 56.9095 1379.19 56.527 1379.52 56.3294C1379.77 56.182 1380.05 56.1165 1380.33 56.099C1380.69 56.0768 1381.05 56.0966 1381.4 56.1645C1382.13 56.3037 1382.79 56.5949 1383.37 57.051C1383.51 57.1563 1383.64 57.1423 1383.75 57.0078C1384.07 56.5914 1384.38 56.1738 1384.7 55.7551C1384.78 55.658 1384.76 55.5188 1384.66 55.4428C1384.29 55.1481 1383.89 54.899 1383.46 54.7025C1382.64 54.327 1381.77 54.1469 1380.87 54.1621C1380.44 54.1691 1380.02 54.1914 1379.61 54.2826C1379.04 54.4066 1378.52 54.6159 1378.05 54.9598C1377.54 55.3282 1377.18 55.7972 1376.98 56.3879C1376.84 56.789 1376.81 57.1996 1376.85 57.6195C1376.88 57.9481 1376.96 58.2627 1377.11 58.5575C1377.36 59.0639 1377.77 59.423 1378.26 59.6967C1378.76 59.9762 1379.3 60.154 1379.86 60.2967C1380.43 60.4452 1381.01 60.5821 1381.59 60.7318C1381.88 60.8066 1382.15 60.9107 1382.41 61.0698C1382.9 61.3774 1382.94 61.9224 1382.6 62.3248C1382.48 62.4639 1382.33 62.568 1382.17 62.6476C1381.87 62.7914 1381.55 62.8523 1381.22 62.8698C1380.87 62.8885 1380.52 62.8663 1380.18 62.802C1379.33 62.6429 1378.58 62.278 1377.94 61.7049C1377.79 61.5657 1377.65 61.5821 1377.52 61.7505C1377.22 62.1657 1376.93 62.5809 1376.63 62.9961C1376.54 63.1213 1376.55 63.2406 1376.67 63.3435C1377.4 63.9774 1378.24 64.4125 1379.19 64.6417C1379.69 64.761 1380.19 64.8219 1380.81 64.8067C1381.2 64.8102 1381.69 64.7844 1382.18 64.6885C1382.68 64.5891 1383.16 64.4324 1383.6 64.1645C1384.55 63.5762 1385.02 62.7107 1385.05 61.6101C1385.05 61.3973 1385.04 61.1821 1385.01 60.9715C1384.95 60.5727 1384.8 60.2078 1384.56 59.8826L1384.56 59.8815Z" fill="#EF7373"/>
<path d="M1393.96 61.009C1393.93 60.7224 1393.93 60.4347 1393.89 60.1493C1393.81 59.5247 1393.6 58.9399 1393.25 58.4078C1392.81 57.7376 1392.21 57.2627 1391.46 56.9902C1391.06 56.8499 1390.66 56.7855 1390.24 56.7656C1389.74 56.7423 1389.26 56.7972 1388.78 56.9551C1387.73 57.3072 1386.95 57.9797 1386.46 58.9645C1386.19 59.5013 1386.07 60.0756 1386.06 60.6745C1386.06 61.0195 1386.07 61.3645 1386.14 61.7025C1386.43 62.9622 1387.16 63.8792 1388.33 64.4417C1388.82 64.6745 1389.33 64.7996 1389.88 64.8031C1390.06 64.8043 1390.24 64.8113 1390.42 64.7996C1390.68 64.7821 1390.94 64.7634 1391.2 64.7224C1391.93 64.6031 1392.6 64.3178 1393.21 63.8944C1393.35 63.7949 1393.37 63.692 1393.27 63.5493C1393.07 63.2534 1392.86 62.9587 1392.66 62.6628C1392.55 62.5096 1392.45 62.4908 1392.29 62.5961C1392 62.7938 1391.69 62.9458 1391.35 63.0452C1391.07 63.1294 1390.78 63.1786 1390.48 63.1914C1390.26 63.2008 1390.04 63.2043 1389.83 63.1493C1388.98 62.9306 1388.45 62.3984 1388.24 61.5528C1388.22 61.4557 1388.24 61.4347 1388.34 61.4347C1389.23 61.4347 1390.13 61.4347 1391.02 61.4347C1391.92 61.4347 1392.81 61.4347 1393.71 61.4347C1393.89 61.4347 1393.97 61.3435 1393.96 61.1633C1393.96 61.1107 1393.96 61.0581 1393.96 61.0066V61.009ZM1391.89 60.0581C1391.79 60.0581 1391.68 60.0581 1391.57 60.0581H1390.09C1389.5 60.0581 1388.9 60.0581 1388.31 60.0581C1388.2 60.0581 1388.19 60.044 1388.2 59.9353C1388.31 59.2967 1388.66 58.8382 1389.24 58.5505C1389.47 58.437 1389.72 58.3879 1389.98 58.3762C1390.32 58.3598 1390.65 58.3891 1390.97 58.5423C1391.5 58.8019 1391.83 59.2171 1391.95 59.7891C1391.96 59.8464 1391.97 59.9049 1391.98 59.9633C1391.98 60.0429 1391.97 60.0569 1391.89 60.0569L1391.89 60.0581Z" fill="#EF7373"/>
<path d="M1402.42 94.8362C1410.67 77.0465 1415.95 48.9235 1405.16 24.7759L1405.04 24.8156C1398.95 26.8075 1392.37 27.818 1385.48 27.818C1378.59 27.818 1372.04 26.811 1365.96 24.8262L1365.84 24.7864C1355.06 48.9317 1360.33 77.0489 1368.58 94.8362C1368.58 94.8362 1347.42 105.713 1362.31 127H1362.34C1362.89 112.811 1373.04 101.503 1385.48 101.503C1397.92 101.503 1408.07 112.811 1408.63 127H1408.69C1423.59 105.713 1402.42 94.8362 1402.42 94.8362H1402.42ZM1398.25 67.2827C1398.25 67.4032 1398.22 67.4979 1398.09 67.5377H1374.32C1374.2 67.4991 1374.16 67.409 1374.17 67.2897C1374.17 67.2874 1374.17 67.285 1374.17 67.2827C1374.17 59.1341 1374.17 50.9855 1374.17 42.8369C1374.17 42.7983 1374.17 42.7585 1374.18 42.7199C1374.19 42.6521 1374.23 42.6065 1374.31 42.5936C1374.34 42.5866 1374.38 42.5842 1374.41 42.5842C1381.65 42.5842 1388.88 42.5842 1396.12 42.5842C1396.14 42.5842 1396.16 42.5842 1396.18 42.5842C1396.33 42.5959 1396.4 42.7328 1396.31 42.8544C1396.3 42.8708 1396.29 42.886 1396.28 42.9024C1395.65 43.7503 1395.02 44.5971 1394.39 45.4451C1392.96 47.3726 1391.53 49.2989 1390.1 51.2264C1390 51.3656 1389.84 51.3738 1389.72 51.2463C1389.58 51.0966 1389.44 50.9445 1389.31 50.7937C1388.71 50.1375 1388.12 49.4814 1387.52 48.8264C1387.39 48.6802 1387.22 48.6849 1387.11 48.8381C1386.69 49.3796 1386.27 49.9223 1385.85 50.465C1385.74 50.603 1385.75 50.7083 1385.87 50.8311C1386.23 51.1948 1386.58 51.5574 1386.94 51.9212C1387.89 52.8884 1388.84 53.8568 1389.79 54.8241C1389.92 54.9551 1390.06 54.9551 1390.18 54.8241C1390.97 53.9481 1391.76 53.072 1392.55 52.196C1393.26 51.4124 1393.96 50.6288 1394.67 49.8451C1395.56 48.851 1396.46 47.858 1397.35 46.865C1397.56 46.6416 1397.76 46.4182 1397.96 46.196C1398.01 46.1363 1398.08 46.1223 1398.14 46.1492C1398.21 46.1784 1398.25 46.2346 1398.25 46.3082C1398.25 46.3492 1398.25 46.3913 1398.25 46.4322C1398.25 53.3832 1398.25 60.3341 1398.25 67.2839L1398.25 67.2827Z" fill="#EF7373"/>
<defs>
<linearGradient id="paint0_linear_984_2475" x1="498.5" y1="0.00244141" x2="498.5" y2="972" gradientUnits="userSpaceOnUse">
<stop stop-color="#EF7373"/>
<stop offset="1" stop-color="#EF7373" stop-opacity="0.17"/>
</linearGradient>
</defs>
</svg>
