<svg width="1440" height="1691" viewBox="0 0 1440 1691" fill="none" xmlns="http://www.w3.org/2000/svg">
<g clip-path="url(#clip0_900_2318)">
<rect width="1440" height="1691" fill="white"/>
<path d="M1567.5 1393C1469.3 1355.33 1390.5 1195 1349.5 1224C1250.79 1293.82 1243 1366 948.5 1424.5C759.942 1461.95 678 1376.5 467.5 1359C80.5 1326.81 99.5 1058 -1 1167.5V1679L1632.29 1712L1567.5 1393Z" fill="url(#paint0_radial_900_2318)"/>
<path d="M1337.5 1349C1235.88 1349 1061.4 1441.5 822 1455C719.709 1460.77 562.28 1433.79 462.5 1429.5C328.755 1423.75 174.5 1455 -1 1380V1775L1632.29 1808L1709 1455C1610.8 1417.33 1418.8 1349 1337.5 1349Z" fill="url(#paint1_radial_900_2318)"/>
<path d="M-1 1485.82C920.127 1485.82 1381.33 1576.12 1379.33 926.963C1379.33 917.43 1391.82 917.932 1391.82 926.963C1391.82 1154.99 1413.98 1310.83 1440 1426.62V1691H-1V1485.82Z" fill="url(#paint2_radial_900_2318)"/>
<g clip-path="url(#clip1_900_2318)">
<path d="M1390.57 799.288C1390.43 799.152 1390.29 799.018 1390.15 798.883C1390.06 798.79 1389.96 798.695 1389.86 798.601C1389.72 798.469 1389.58 798.337 1389.44 798.206C1389.34 798.111 1389.24 798.018 1389.14 797.923C1389 797.792 1388.85 797.662 1388.71 797.532C1388.61 797.439 1388.5 797.345 1388.4 797.253C1388.26 797.123 1388.11 796.994 1387.96 796.866C1387.86 796.773 1387.76 796.681 1387.65 796.588C1387.5 796.459 1387.35 796.33 1387.2 796.201C1387.09 796.111 1386.99 796.021 1386.89 795.932C1386.73 795.799 1386.57 795.667 1386.41 795.533C1386.31 795.449 1386.21 795.365 1386.11 795.282C1385.93 795.137 1385.75 794.993 1385.57 794.848C1385.48 794.778 1385.4 794.708 1385.31 794.639C1385.04 794.426 1384.78 794.213 1384.5 794.002C1384.23 794.213 1383.96 794.426 1383.69 794.639C1383.6 794.708 1383.52 794.779 1383.43 794.848C1383.25 794.992 1383.08 795.137 1382.9 795.282C1382.8 795.365 1382.7 795.449 1382.6 795.533C1382.44 795.667 1382.27 795.799 1382.12 795.932C1382.01 796.021 1381.91 796.111 1381.8 796.201C1381.65 796.33 1381.5 796.46 1381.35 796.59C1381.25 796.682 1381.14 796.774 1381.04 796.868C1380.89 796.997 1380.74 797.125 1380.6 797.255C1380.5 797.349 1380.39 797.442 1380.29 797.537C1380.15 797.667 1380 797.797 1379.86 797.926C1379.76 798.02 1379.66 798.115 1379.56 798.209C1379.42 798.34 1379.28 798.473 1379.14 798.605C1379.04 798.698 1378.94 798.793 1378.85 798.887C1378.71 799.021 1378.57 799.156 1378.43 799.29C1378.33 799.384 1378.24 799.476 1378.15 799.57C1378.01 799.707 1377.87 799.845 1377.73 799.983C1377.64 800.074 1377.55 800.166 1377.46 800.259C1377.32 800.4 1377.19 800.542 1377.05 800.683C1376.96 800.773 1376.88 800.862 1376.79 800.952C1376.65 801.098 1376.52 801.245 1376.38 801.391C1376.3 801.477 1376.22 801.564 1376.14 801.65C1376 801.803 1375.86 801.955 1375.72 802.108C1375.65 802.191 1375.57 802.273 1375.5 802.356C1375.35 802.515 1375.21 802.675 1375.07 802.835C1375.01 802.912 1374.94 802.988 1374.87 803.066C1374.72 803.234 1374.58 803.404 1374.43 803.573C1374.38 803.642 1374.32 803.711 1374.26 803.78C1374.11 803.962 1373.95 804.143 1373.8 804.324C1373.76 804.383 1373.71 804.442 1373.66 804.501C1373.5 804.698 1373.34 804.897 1373.18 805.097C1373.14 805.141 1373.11 805.183 1373.07 805.226C1372.89 805.452 1372.72 805.677 1372.54 805.905C1372.53 805.922 1372.52 805.939 1372.5 805.956C1370.77 808.207 1369.22 810.525 1367.85 812.899C1367.85 812.901 1367.85 812.903 1367.84 812.906C1367.69 813.165 1367.55 813.426 1367.4 813.687C1367.4 813.694 1367.39 813.701 1367.39 813.709C1367.24 813.966 1367.1 814.224 1366.96 814.481C1366.96 814.49 1366.95 814.5 1366.95 814.509C1366.81 814.765 1366.67 815.023 1366.54 815.28C1366.53 815.289 1366.53 815.3 1366.52 815.309C1366.39 815.568 1366.26 815.826 1366.13 816.086L1366.11 816.11C1365.98 816.372 1365.85 816.634 1365.72 816.897C1365.72 816.902 1365.72 816.908 1365.72 816.913C1365.59 817.18 1365.46 817.448 1365.33 817.717C1371.07 819.592 1377.58 820.649 1384.48 820.649C1391.38 820.649 1397.92 819.587 1403.67 817.707C1403.54 817.438 1403.41 817.169 1403.28 816.901C1403.28 816.897 1403.28 816.894 1403.28 816.89C1403.15 816.626 1403.02 816.362 1402.88 816.099C1402.88 816.092 1402.88 816.086 1402.88 816.079C1402.74 815.818 1402.61 815.557 1402.47 815.296C1402.47 815.288 1402.47 815.281 1402.46 815.273C1402.33 815.012 1402.19 814.752 1402.05 814.494C1402.05 814.487 1402.04 814.481 1402.04 814.474C1401.9 814.212 1401.75 813.951 1401.61 813.69C1401.61 813.687 1401.6 813.683 1401.6 813.68C1400.12 811.033 1398.43 808.451 1396.5 805.951C1396.48 805.931 1396.47 805.911 1396.45 805.891C1396.28 805.667 1396.1 805.443 1395.93 805.22C1395.89 805.177 1395.86 805.134 1395.82 805.09C1395.66 804.891 1395.5 804.694 1395.34 804.496C1395.29 804.438 1395.24 804.378 1395.2 804.319C1395.05 804.138 1394.9 803.957 1394.74 803.776C1394.68 803.707 1394.62 803.638 1394.57 803.569C1394.42 803.399 1394.28 803.229 1394.13 803.061C1394.06 802.984 1393.99 802.908 1393.93 802.831C1393.79 802.67 1393.64 802.511 1393.5 802.351C1393.43 802.269 1393.36 802.186 1393.28 802.104C1393.14 801.951 1393 801.799 1392.86 801.647C1392.78 801.56 1392.7 801.474 1392.62 801.388C1392.49 801.241 1392.35 801.095 1392.21 800.948C1392.12 800.859 1392.04 800.769 1391.95 800.68C1391.81 800.537 1391.68 800.395 1391.54 800.254C1391.45 800.162 1391.36 800.07 1391.27 799.978C1391.13 799.84 1390.99 799.702 1390.86 799.565C1390.76 799.471 1390.67 799.379 1390.57 799.287L1390.57 799.288Z" fill="#D8D5FC"/>
<path d="M1383.56 853.881C1383.26 853.479 1382.86 853.195 1382.41 852.974C1381.91 852.725 1381.37 852.562 1380.83 852.423C1380.29 852.284 1379.75 852.157 1379.2 852.014C1378.91 851.936 1378.62 851.836 1378.37 851.654C1378.24 851.556 1378.13 851.437 1378.09 851.271C1378.01 850.909 1378.19 850.527 1378.52 850.329C1378.77 850.182 1379.05 850.116 1379.34 850.099C1379.69 850.077 1380.05 850.097 1380.4 850.164C1381.13 850.304 1381.79 850.595 1382.37 851.051C1382.51 851.156 1382.64 851.142 1382.75 851.008C1383.07 850.591 1383.39 850.174 1383.7 849.755C1383.78 849.658 1383.76 849.519 1383.66 849.443C1383.29 849.148 1382.89 848.899 1382.46 848.702C1381.64 848.327 1380.77 848.147 1379.87 848.162C1379.44 848.169 1379.03 848.191 1378.61 848.282C1378.05 848.406 1377.52 848.616 1377.05 848.96C1376.54 849.328 1376.18 849.797 1375.98 850.388C1375.84 850.789 1375.81 851.199 1375.85 851.619C1375.88 851.948 1375.96 852.263 1376.11 852.557C1376.36 853.064 1376.77 853.423 1377.26 853.697C1377.76 853.976 1378.3 854.154 1378.86 854.297C1379.43 854.445 1380.01 854.582 1380.59 854.732C1380.88 854.807 1381.15 854.911 1381.41 855.07C1381.9 855.377 1381.94 855.922 1381.6 856.325C1381.48 856.464 1381.33 856.568 1381.17 856.647C1380.87 856.791 1380.55 856.852 1380.22 856.87C1379.87 856.888 1379.52 856.866 1379.18 856.802C1378.33 856.643 1377.58 856.278 1376.94 855.705C1376.79 855.566 1376.65 855.582 1376.53 855.75C1376.22 856.166 1375.93 856.581 1375.63 856.996C1375.54 857.121 1375.55 857.24 1375.67 857.343C1376.4 857.977 1377.25 858.412 1378.19 858.642C1378.69 858.761 1379.19 858.822 1379.81 858.807C1380.2 858.81 1380.69 858.784 1381.18 858.688C1381.68 858.589 1382.16 858.432 1382.6 858.164C1383.55 857.576 1384.02 856.711 1384.05 855.61C1384.05 855.397 1384.04 855.182 1384.01 854.971C1383.95 854.573 1383.8 854.208 1383.56 853.883L1383.56 853.881Z" fill="#D8D5FC"/>
<path d="M1392.96 855.009C1392.93 854.722 1392.93 854.434 1392.89 854.149C1392.8 853.525 1392.6 852.94 1392.25 852.408C1391.81 851.737 1391.21 851.262 1390.45 850.99C1390.06 850.85 1389.66 850.785 1389.24 850.765C1388.74 850.742 1388.26 850.797 1387.78 850.955C1386.73 851.307 1385.95 851.979 1385.46 852.964C1385.19 853.501 1385.07 854.075 1385.06 854.674C1385.06 855.019 1385.07 855.364 1385.14 855.702C1385.43 856.962 1386.16 857.879 1387.33 858.442C1387.82 858.674 1388.33 858.799 1388.88 858.803C1389.06 858.804 1389.24 858.811 1389.42 858.799C1389.68 858.782 1389.94 858.763 1390.19 858.722C1390.93 858.603 1391.6 858.318 1392.21 857.894C1392.35 857.795 1392.37 857.692 1392.27 857.549C1392.06 857.253 1391.86 856.958 1391.66 856.663C1391.55 856.509 1391.45 856.491 1391.29 856.596C1391 856.794 1390.69 856.946 1390.35 857.045C1390.07 857.129 1389.78 857.178 1389.48 857.191C1389.26 857.201 1389.04 857.204 1388.82 857.149C1387.97 856.93 1387.45 856.398 1387.24 855.553C1387.22 855.456 1387.24 855.434 1387.34 855.434C1388.23 855.434 1389.13 855.434 1390.02 855.434C1390.92 855.434 1391.81 855.434 1392.71 855.434C1392.89 855.434 1392.97 855.343 1392.96 855.163C1392.96 855.11 1392.96 855.058 1392.96 855.006V855.009ZM1390.89 854.058C1390.78 854.058 1390.68 854.058 1390.57 854.058H1389.09C1388.5 854.058 1387.9 854.058 1387.31 854.058C1387.2 854.058 1387.19 854.044 1387.2 853.935C1387.31 853.296 1387.66 852.838 1388.24 852.55C1388.47 852.437 1388.72 852.388 1388.97 852.376C1389.32 852.36 1389.65 852.389 1389.97 852.542C1390.5 852.802 1390.82 853.217 1390.95 853.789C1390.96 853.846 1390.97 853.905 1390.97 853.963C1390.98 854.043 1390.97 854.057 1390.89 854.057L1390.89 854.058Z" fill="#D8D5FC"/>
<path d="M1401.42 888.836C1409.67 871.047 1414.95 842.923 1404.16 818.776L1404.04 818.816C1397.95 820.807 1391.37 821.818 1384.48 821.818C1377.59 821.818 1371.04 820.811 1364.96 818.826L1364.84 818.786C1354.06 842.932 1359.33 871.049 1367.58 888.836C1367.58 888.836 1346.42 899.713 1361.31 921H1361.34C1361.89 906.811 1372.04 895.503 1384.48 895.503C1396.92 895.503 1407.07 906.811 1407.63 921H1407.69C1422.59 899.713 1401.42 888.836 1401.42 888.836H1401.42ZM1397.25 861.283C1397.25 861.403 1397.22 861.498 1397.09 861.538H1373.32C1373.2 861.499 1373.16 861.409 1373.17 861.29C1373.17 861.287 1373.17 861.285 1373.17 861.283C1373.17 853.134 1373.17 844.985 1373.17 836.837C1373.17 836.798 1373.17 836.759 1373.18 836.72C1373.19 836.652 1373.23 836.606 1373.31 836.594C1373.34 836.587 1373.38 836.584 1373.41 836.584C1380.65 836.584 1387.88 836.584 1395.12 836.584C1395.14 836.584 1395.16 836.584 1395.18 836.584C1395.33 836.596 1395.4 836.733 1395.31 836.854C1395.3 836.871 1395.29 836.886 1395.28 836.902C1394.65 837.75 1394.02 838.597 1393.39 839.445C1391.96 841.373 1390.53 843.299 1389.1 845.226C1389 845.366 1388.84 845.374 1388.72 845.246C1388.58 845.097 1388.44 844.945 1388.31 844.794C1387.71 844.138 1387.12 843.481 1386.52 842.826C1386.39 842.68 1386.22 842.685 1386.11 842.838C1385.69 843.38 1385.27 843.922 1384.85 844.465C1384.74 844.603 1384.75 844.708 1384.87 844.831C1385.23 845.195 1385.58 845.557 1385.94 845.921C1386.89 846.888 1387.84 847.857 1388.79 848.824C1388.92 848.955 1389.06 848.955 1389.18 848.824C1389.97 847.948 1390.76 847.072 1391.55 846.196C1392.26 845.412 1392.96 844.629 1393.67 843.845C1394.56 842.851 1395.46 841.858 1396.35 840.865C1396.56 840.642 1396.76 840.418 1396.96 840.196C1397.01 840.136 1397.08 840.122 1397.14 840.149C1397.21 840.178 1397.25 840.235 1397.25 840.308C1397.25 840.349 1397.25 840.391 1397.25 840.432C1397.25 847.383 1397.25 854.334 1397.25 861.284L1397.25 861.283Z" fill="#D8D5FC"/>
</g>
</g>
<defs>
<radialGradient id="paint0_radial_900_2318" cx="0" cy="0" r="1" gradientUnits="userSpaceOnUse" gradientTransform="translate(1363 1257.5) rotate(97.327) scale(650.814 1950.49)">
<stop stop-color="#312990"/>
<stop offset="1" stop-color="#312990" stop-opacity="0.63"/>
</radialGradient>
<radialGradient id="paint1_radial_900_2318" cx="0" cy="0" r="1" gradientUnits="userSpaceOnUse" gradientTransform="translate(1350.5 1396) rotate(163.034) scale(1399.93 5215.41)">
<stop stop-color="#584BE9"/>
<stop offset="1" stop-color="#584BE9" stop-opacity="0.54"/>
</radialGradient>
<radialGradient id="paint2_radial_900_2318" cx="0" cy="0" r="1" gradientUnits="userSpaceOnUse" gradientTransform="translate(1390.5 962) rotate(93.8204) scale(1208.18 2258.1)">
<stop stop-color="#D8D5FC"/>
<stop offset="0.979167" stop-color="#D8D5FC" stop-opacity="0.5"/>
<stop offset="1" stop-color="#D8D5FC" stop-opacity="0"/>
</radialGradient>
<clipPath id="clip0_900_2318">
<rect width="1440" height="1691" fill="white"/>
</clipPath>
<clipPath id="clip1_900_2318">
<rect width="57" height="127" fill="white" transform="translate(1356 794)"/>
</clipPath>
</defs>
</svg>
