<svg width="1440" height="897" viewBox="0 0 1440 750" fill="none" xmlns="http://www.w3.org/2000/svg">
    <path d="M1567.5 598.999C1469.3 561.332 1390.5 400.999 1349.5 429.999C1250.79 499.818 1243 571.999 948.5 630.499C759.942 667.954 678 582.503 467.5 564.997C80.5 532.814 99.5 264.001 -1 373.499V884.999L1632.29 917.999L1567.5 598.999Z"
          fill="url(#paint0_radial_990_2511)"/>
    <path d="M1337.5 555C1235.88 555 1061.4 647.5 822 661C719.709 666.768 562.28 639.79 462.5 635.5C328.755 629.749 174.5 661 -1 586V981L1632.29 1014L1709 661C1610.8 623.333 1418.8 555 1337.5 555Z"
          fill="url(#paint1_radial_990_2511)"/>
    <path d="M-1 691.819C920.127 691.819 1381.33 782.117 1379.33 132.963C1379.33 123.43 1391.82 123.932 1391.82 132.963C1391.82 360.993 1413.98 516.829 1440 632.621V897H-1V691.819Z"
          fill="url(#paint2_radial_990_2511)"/>
    <path d="M1383.56 59.8815C1383.25 59.4791 1382.86 59.1949 1382.41 58.9739C1381.91 58.7247 1381.37 58.5622 1380.83 58.423C1380.29 58.2838 1379.74 58.1575 1379.2 58.0136C1378.91 57.9364 1378.62 57.8358 1378.37 57.6545C1378.24 57.5563 1378.13 57.437 1378.09 57.2709C1378.01 56.9095 1378.19 56.527 1378.52 56.3294C1378.77 56.182 1379.05 56.1165 1379.33 56.099C1379.69 56.0768 1380.05 56.0966 1380.4 56.1645C1381.13 56.3037 1381.79 56.5949 1382.37 57.051C1382.51 57.1563 1382.64 57.1423 1382.75 57.0078C1383.07 56.5914 1383.38 56.1738 1383.7 55.7551C1383.78 55.658 1383.76 55.5188 1383.66 55.4428C1383.29 55.1481 1382.89 54.899 1382.46 54.7025C1381.64 54.327 1380.77 54.1469 1379.87 54.1621C1379.44 54.1691 1379.02 54.1914 1378.61 54.2826C1378.04 54.4066 1377.52 54.6159 1377.05 54.9598C1376.54 55.3282 1376.18 55.7972 1375.98 56.3879C1375.84 56.789 1375.81 57.1996 1375.85 57.6195C1375.88 57.9481 1375.96 58.2627 1376.11 58.5575C1376.36 59.0639 1376.77 59.423 1377.26 59.6967C1377.76 59.9762 1378.3 60.154 1378.86 60.2967C1379.43 60.4452 1380.01 60.5821 1380.59 60.7318C1380.88 60.8066 1381.15 60.9107 1381.41 61.0698C1381.9 61.3774 1381.94 61.9224 1381.6 62.3248C1381.48 62.4639 1381.33 62.568 1381.17 62.6476C1380.87 62.7914 1380.55 62.8523 1380.22 62.8698C1379.87 62.8885 1379.52 62.8663 1379.18 62.802C1378.33 62.6429 1377.58 62.278 1376.94 61.7049C1376.79 61.5657 1376.65 61.5821 1376.52 61.7505C1376.22 62.1657 1375.93 62.5809 1375.63 62.9961C1375.54 63.1213 1375.55 63.2406 1375.67 63.3435C1376.4 63.9774 1377.24 64.4125 1378.19 64.6417C1378.69 64.761 1379.19 64.8219 1379.81 64.8067C1380.2 64.8102 1380.69 64.7844 1381.18 64.6885C1381.68 64.5891 1382.16 64.4324 1382.6 64.1645C1383.55 63.5762 1384.02 62.7107 1384.05 61.6101C1384.05 61.3973 1384.04 61.1821 1384.01 60.9715C1383.95 60.5727 1383.8 60.2078 1383.56 59.8826L1383.56 59.8815Z"
          fill="#D8D5FC"/>
    <path d="M1392.96 61.009C1392.93 60.7224 1392.93 60.4347 1392.89 60.1493C1392.81 59.5247 1392.6 58.9399 1392.25 58.4078C1391.81 57.7376 1391.21 57.2627 1390.46 56.9902C1390.06 56.8499 1389.66 56.7855 1389.24 56.7656C1388.74 56.7423 1388.26 56.7972 1387.78 56.9551C1386.73 57.3072 1385.95 57.9797 1385.46 58.9645C1385.19 59.5013 1385.07 60.0756 1385.06 60.6745C1385.06 61.0195 1385.07 61.3645 1385.14 61.7025C1385.43 62.9622 1386.16 63.8792 1387.33 64.4417C1387.82 64.6745 1388.33 64.7996 1388.88 64.8031C1389.06 64.8043 1389.24 64.8113 1389.42 64.7996C1389.68 64.7821 1389.94 64.7634 1390.2 64.7224C1390.93 64.6031 1391.6 64.3178 1392.21 63.8944C1392.35 63.795 1392.37 63.692 1392.27 63.5493C1392.07 63.2534 1391.86 62.9587 1391.66 62.6628C1391.55 62.5096 1391.45 62.4908 1391.29 62.5961C1391 62.7938 1390.69 62.9458 1390.35 63.0452C1390.07 63.1295 1389.78 63.1786 1389.48 63.1914C1389.26 63.2008 1389.04 63.2043 1388.83 63.1493C1387.98 62.9306 1387.45 62.3985 1387.24 61.5528C1387.22 61.4558 1387.24 61.4347 1387.34 61.4347C1388.23 61.4347 1389.13 61.4347 1390.02 61.4347C1390.92 61.4347 1391.81 61.4347 1392.71 61.4347C1392.89 61.4347 1392.97 61.3435 1392.96 61.1633C1392.96 61.1107 1392.96 61.0581 1392.96 61.0066V61.009ZM1390.89 60.0581C1390.79 60.0581 1390.68 60.0581 1390.57 60.0581H1389.09C1388.5 60.0581 1387.9 60.0581 1387.31 60.0581C1387.2 60.0581 1387.19 60.044 1387.2 59.9353C1387.31 59.2967 1387.66 58.8382 1388.24 58.5505C1388.47 58.437 1388.72 58.3879 1388.98 58.3762C1389.32 58.3598 1389.65 58.3891 1389.97 58.5423C1390.5 58.8019 1390.83 59.2171 1390.95 59.7891C1390.96 59.8464 1390.97 59.9049 1390.98 59.9633C1390.98 60.0429 1390.97 60.0569 1390.89 60.0569L1390.89 60.0581Z"
          fill="#D8D5FC"/>
    <path d="M1401.42 94.8362C1409.67 77.0465 1414.95 48.9235 1404.16 24.7759L1404.04 24.8156C1397.95 26.8075 1391.37 27.818 1384.48 27.818C1377.59 27.818 1371.04 26.811 1364.96 24.8262L1364.84 24.7864C1354.06 48.9317 1359.33 77.0489 1367.58 94.8362C1367.58 94.8362 1346.42 105.713 1361.31 127H1361.34C1361.89 112.811 1372.04 101.503 1384.48 101.503C1396.92 101.503 1407.07 112.811 1407.63 127H1407.69C1422.59 105.713 1401.42 94.8362 1401.42 94.8362H1401.42ZM1397.25 67.2827C1397.25 67.4032 1397.22 67.4979 1397.09 67.5377H1373.32C1373.2 67.4991 1373.16 67.409 1373.17 67.2897C1373.17 67.2874 1373.17 67.285 1373.17 67.2827C1373.17 59.1341 1373.17 50.9855 1373.17 42.8369C1373.17 42.7983 1373.17 42.7585 1373.18 42.7199C1373.19 42.6521 1373.23 42.6065 1373.31 42.5936C1373.34 42.5866 1373.38 42.5842 1373.41 42.5842C1380.65 42.5842 1387.88 42.5842 1395.12 42.5842C1395.14 42.5842 1395.16 42.5842 1395.18 42.5842C1395.33 42.5959 1395.4 42.7328 1395.31 42.8544C1395.3 42.8708 1395.29 42.886 1395.28 42.9024C1394.65 43.7503 1394.02 44.5971 1393.39 45.4451C1391.96 47.3726 1390.53 49.2989 1389.1 51.2264C1389 51.3656 1388.84 51.3738 1388.72 51.2463C1388.58 51.0966 1388.44 50.9445 1388.31 50.7937C1387.71 50.1375 1387.12 49.4814 1386.52 48.8264C1386.39 48.6802 1386.22 48.6849 1386.11 48.8381C1385.69 49.3796 1385.27 49.9223 1384.85 50.465C1384.74 50.603 1384.75 50.7083 1384.87 50.8311C1385.23 51.1948 1385.58 51.5574 1385.94 51.9212C1386.89 52.8884 1387.84 53.8568 1388.79 54.8241C1388.92 54.9551 1389.06 54.9551 1389.18 54.8241C1389.97 53.9481 1390.76 53.072 1391.55 52.196C1392.26 51.4124 1392.96 50.6288 1393.67 49.8451C1394.56 48.851 1395.46 47.858 1396.35 46.865C1396.56 46.6416 1396.76 46.4182 1396.96 46.196C1397.01 46.1363 1397.08 46.1223 1397.14 46.1492C1397.21 46.1784 1397.25 46.2346 1397.25 46.3082C1397.25 46.3492 1397.25 46.3913 1397.25 46.4322C1397.25 53.3832 1397.25 60.3341 1397.25 67.2839L1397.25 67.2827Z"
          fill="#D8D5FC"/>
    <path d="M1390.57 5.28787C1390.43 5.1522 1390.29 5.01769 1390.15 4.88319C1390.06 4.78962 1389.96 4.69488 1389.86 4.60131C1389.72 4.46915 1389.58 4.33698 1389.44 4.20599C1389.34 4.11125 1389.24 4.01768 1389.14 3.92295C1389 3.79195 1388.85 3.66212 1388.71 3.5323C1388.61 3.43873 1388.5 3.34516 1388.4 3.25276C1388.26 3.12294 1388.11 2.99428 1387.96 2.86563C1387.86 2.77323 1387.76 2.68083 1387.65 2.58843C1387.5 2.4586 1387.35 2.32995 1387.2 2.20129C1387.09 2.11123 1386.99 2.02117 1386.89 1.93228C1386.73 1.79895 1386.57 1.66678 1386.41 1.53345C1386.31 1.44924 1386.21 1.36503 1386.11 1.28199C1385.93 1.13695 1385.75 0.993094 1385.57 0.848063C1385.48 0.777887 1385.4 0.707711 1385.31 0.638705C1385.04 0.425837 1384.78 0.21297 1384.5 0.00244141C1384.23 0.21297 1383.96 0.425837 1383.69 0.638705C1383.6 0.707711 1383.52 0.779057 1383.43 0.848063C1383.25 0.991924 1383.08 1.13695 1382.9 1.28199C1382.8 1.36503 1382.7 1.44924 1382.6 1.53345C1382.44 1.66678 1382.27 1.79895 1382.12 1.93228C1382.01 2.02117 1381.91 2.11123 1381.8 2.20129C1381.65 2.32995 1381.5 2.45977 1381.35 2.5896C1381.25 2.682 1381.14 2.7744 1381.04 2.86796C1380.89 2.99662 1380.74 3.12528 1380.6 3.2551C1380.5 3.34867 1380.39 3.44224 1380.29 3.53698C1380.15 3.6668 1380 3.79663 1379.86 3.92645C1379.76 4.02002 1379.66 4.11476 1379.56 4.2095C1379.42 4.34049 1379.28 4.47266 1379.14 4.60482C1379.04 4.69839 1378.94 4.79313 1378.85 4.8867C1378.71 5.0212 1378.57 5.15571 1378.43 5.29021C1378.33 5.38378 1378.24 5.47618 1378.15 5.56974C1378.01 5.70659 1377.87 5.8446 1377.73 5.98261C1377.64 6.07384 1377.55 6.16624 1377.46 6.25864C1377.32 6.40016 1377.19 6.54168 1377.05 6.6832C1376.96 6.77326 1376.88 6.86215 1376.79 6.95221C1376.65 7.09841 1376.52 7.24461 1376.38 7.39081C1376.3 7.47736 1376.22 7.56392 1376.14 7.65047C1376 7.80251 1375.86 7.95456 1375.72 8.10778C1375.65 8.19082 1375.57 8.27269 1375.5 8.35574C1375.35 8.5148 1375.21 8.67504 1375.07 8.83527C1375.01 8.91247 1374.94 8.98849 1374.87 9.06568C1374.72 9.23411 1374.58 9.4037 1374.43 9.57329C1374.38 9.6423 1374.32 9.7113 1374.26 9.78031C1374.11 9.9616 1373.95 10.1429 1373.8 10.3242C1373.76 10.3827 1373.71 10.4423 1373.66 10.5008C1373.5 10.6984 1373.34 10.8973 1373.18 11.0973C1373.14 11.1406 1373.11 11.1827 1373.07 11.2259C1372.89 11.4517 1372.72 11.6774 1372.54 11.9055C1372.53 11.9219 1372.52 11.9394 1372.5 11.9558C1370.77 14.2073 1369.22 16.5254 1367.85 18.8985C1367.85 18.9009 1367.85 18.9032 1367.84 18.9055C1367.69 19.1652 1367.55 19.426 1367.4 19.6868C1367.4 19.6939 1367.39 19.7009 1367.39 19.7091C1367.25 19.9664 1367.1 20.2237 1366.96 20.481C1366.96 20.4904 1366.95 20.4997 1366.95 20.5091C1366.81 20.7652 1366.67 21.0225 1366.54 21.2798C1366.53 21.2892 1366.53 21.2997 1366.52 21.3091C1366.39 21.5676 1366.26 21.826 1366.13 22.0857L1366.11 22.1102C1365.98 22.3722 1365.85 22.6342 1365.72 22.8974C1365.72 22.9021 1365.72 22.9079 1365.72 22.9126C1365.59 23.1804 1365.46 23.4483 1365.33 23.7173C1371.07 25.5922 1377.58 26.6495 1384.48 26.6495C1391.38 26.6495 1397.92 25.5875 1403.67 23.7068C1403.54 23.4377 1403.41 23.1687 1403.28 22.9009C1403.28 22.8974 1403.28 22.8939 1403.28 22.8904C1403.15 22.626 1403.02 22.3617 1402.88 22.0986C1402.88 22.0915 1402.88 22.0857 1402.88 22.0787C1402.74 21.8178 1402.61 21.557 1402.47 21.2962C1402.47 21.288 1402.47 21.281 1402.46 21.2728C1402.33 21.012 1402.19 20.7523 1402.05 20.4939C1402.05 20.4868 1402.04 20.481 1402.04 20.474C1401.9 20.212 1401.75 19.9512 1401.61 19.6903C1401.61 19.6868 1401.6 19.6833 1401.6 19.6798C1400.12 17.033 1398.43 14.4505 1396.5 11.9511C1396.48 11.9312 1396.47 11.9113 1396.45 11.8914C1396.28 11.6669 1396.1 11.4435 1395.93 11.2201C1395.89 11.1768 1395.86 11.1335 1395.82 11.0903C1395.66 10.8914 1395.5 10.6938 1395.34 10.4961C1395.29 10.4376 1395.24 10.378 1395.2 10.3195C1395.05 10.1382 1394.9 9.95692 1394.74 9.77563C1394.68 9.70663 1394.62 9.63762 1394.57 9.56861C1394.42 9.39902 1394.28 9.22943 1394.13 9.06101C1394.06 8.98381 1393.99 8.90779 1393.93 8.83059C1393.79 8.67036 1393.64 8.51129 1393.5 8.35106C1393.43 8.26918 1393.36 8.18614 1393.28 8.10427C1393.14 7.95105 1393 7.799 1392.86 7.64696C1392.78 7.56041 1392.7 7.47386 1392.62 7.38847C1392.49 7.2411 1392.35 7.0949 1392.21 6.94754C1392.12 6.85865 1392.04 6.76859 1391.95 6.6797C1391.81 6.537 1391.68 6.39548 1391.54 6.25396C1391.45 6.16156 1391.36 6.07033 1391.27 5.97794C1391.13 5.83992 1390.99 5.70191 1390.86 5.56507C1390.76 5.4715 1390.67 5.3791 1390.57 5.2867L1390.57 5.28787Z"
          fill="#D8D5FC"/>
    <defs>
        <radialGradient id="paint0_radial_990_2511" cx="0" cy="0" r="1" gradientUnits="userSpaceOnUse"
                        gradientTransform="translate(1427.06 206.278) rotate(94.3319) scale(1150.45 2053.02)">
            <stop stop-color="#312990"/>
            <stop offset="1" stop-color="#312990" stop-opacity="0.63"/>
        </radialGradient>
        <radialGradient id="paint1_radial_990_2511" cx="0" cy="0" r="1" gradientUnits="userSpaceOnUse"
                        gradientTransform="translate(1350.5 103.832) rotate(146.022) scale(1614.72 9988.99)">
            <stop stop-color="#584BE9"/>
            <stop offset="1" stop-color="#584BE9" stop-opacity="0.54"/>
        </radialGradient>
        <radialGradient id="paint2_radial_990_2511" cx="0" cy="0" r="1" gradientUnits="userSpaceOnUse"
                        gradientTransform="translate(1650.26 55.2395) rotate(93.4481) scale(1588.32 2680.74)">
            <stop stop-color="#D8D5FC"/>
            <stop offset="0.979167" stop-color="#D8D5FC" stop-opacity="0.5"/>
            <stop offset="1" stop-color="#D8D5FC" stop-opacity="0"/>
        </radialGradient>
    </defs>
</svg>
