<svg width="1440" height="2486" viewBox="0 0 1440 2486" fill="none" xmlns="http://www.w3.org/2000/svg">
<g clip-path="url(#clip0_865_2330)">
<rect width="1440" height="2486" fill="white"/>
<path d="M1049 194.971C813.593 194.971 458.5 45.4995 -9.5 216L-125 1384.01L1586.32 1498.51C1599.48 943.341 1763.72 4.97837 1692.5 -57.5277C1571.15 -164.027 1635.32 194.971 1049 194.971Z" fill="#FEF0D3"/>
<path d="M1121 480.732C885.593 480.732 571.5 753.233 -35.5 663.733L-130 1852.77L1581.32 1967.27C1594.48 1412.1 1758.72 473.74 1687.5 411.234C1566.15 304.734 1707.32 480.732 1121 480.732Z" fill="#FCE2AF"/>
<path d="M776 1212.54C540.593 1212.54 92 803.037 -39.5358 973.537L-130 2573.04L1581.32 2687.54C1594.48 2132.37 1573.58 1084.54 1502.35 1022.04C1381 915.537 1115 1212.54 776 1212.54Z" fill="#FDD68A"/>
<path d="M1165.44 1986.27C993.871 1986.27 268.275 1696.64 -16.0857 1855.72L-109 2491H1474V1855.72C1428.34 1899.23 1302.69 1986.27 1165.44 1986.27Z" fill="#FCC55B"/>
<path d="M-1 2282.82C920.127 2282.82 1381.33 2373.12 1379.33 1723.96C1379.33 1714.43 1391.82 1714.93 1391.82 1723.96C1391.82 1951.99 1413.98 2107.83 1440 2223.62V2488H-1V2282.82Z" fill="url(#paint0_radial_865_2330)"/>
<path d="M1390.57 1596.29C1390.43 1596.15 1390.29 1596.02 1390.15 1595.88C1390.06 1595.79 1389.96 1595.69 1389.86 1595.6C1389.72 1595.47 1389.58 1595.34 1389.44 1595.21C1389.34 1595.11 1389.24 1595.02 1389.14 1594.92C1389 1594.79 1388.85 1594.66 1388.71 1594.53C1388.61 1594.44 1388.5 1594.35 1388.4 1594.25C1388.26 1594.12 1388.11 1593.99 1387.96 1593.87C1387.86 1593.77 1387.76 1593.68 1387.65 1593.59C1387.5 1593.46 1387.35 1593.33 1387.2 1593.2C1387.09 1593.11 1386.99 1593.02 1386.89 1592.93C1386.73 1592.8 1386.57 1592.67 1386.41 1592.53C1386.31 1592.45 1386.21 1592.37 1386.11 1592.28C1385.93 1592.14 1385.75 1591.99 1385.57 1591.85C1385.48 1591.78 1385.4 1591.71 1385.31 1591.64C1385.04 1591.43 1384.77 1591.21 1384.5 1591C1384.23 1591.21 1383.96 1591.43 1383.69 1591.64C1383.6 1591.71 1383.52 1591.78 1383.43 1591.85C1383.25 1591.99 1383.07 1592.14 1382.9 1592.28C1382.8 1592.37 1382.7 1592.45 1382.59 1592.53C1382.44 1592.67 1382.27 1592.8 1382.12 1592.93C1382.01 1593.02 1381.91 1593.11 1381.8 1593.2C1381.65 1593.33 1381.5 1593.46 1381.35 1593.59C1381.24 1593.68 1381.14 1593.77 1381.04 1593.87C1380.89 1594 1380.74 1594.13 1380.6 1594.26C1380.5 1594.35 1380.39 1594.44 1380.29 1594.54C1380.15 1594.67 1380 1594.8 1379.86 1594.93C1379.76 1595.02 1379.66 1595.11 1379.56 1595.21C1379.42 1595.34 1379.28 1595.47 1379.14 1595.6C1379.04 1595.7 1378.94 1595.79 1378.85 1595.89C1378.71 1596.02 1378.57 1596.16 1378.43 1596.29C1378.33 1596.38 1378.24 1596.48 1378.15 1596.57C1378.01 1596.71 1377.87 1596.84 1377.73 1596.98C1377.64 1597.07 1377.55 1597.17 1377.46 1597.26C1377.32 1597.4 1377.19 1597.54 1377.05 1597.68C1376.96 1597.77 1376.88 1597.86 1376.79 1597.95C1376.65 1598.1 1376.52 1598.24 1376.38 1598.39C1376.3 1598.48 1376.22 1598.56 1376.14 1598.65C1376 1598.8 1375.86 1598.95 1375.72 1599.11C1375.65 1599.19 1375.57 1599.27 1375.5 1599.36C1375.35 1599.51 1375.21 1599.68 1375.07 1599.84C1375.01 1599.91 1374.94 1599.99 1374.87 1600.07C1374.72 1600.23 1374.58 1600.4 1374.43 1600.57C1374.38 1600.64 1374.32 1600.71 1374.26 1600.78C1374.11 1600.96 1373.95 1601.14 1373.8 1601.32C1373.76 1601.38 1373.71 1601.44 1373.66 1601.5C1373.5 1601.7 1373.34 1601.9 1373.18 1602.1C1373.14 1602.14 1373.11 1602.18 1373.07 1602.23C1372.89 1602.45 1372.72 1602.68 1372.54 1602.91C1372.53 1602.92 1372.52 1602.94 1372.5 1602.96C1370.77 1605.21 1369.22 1607.53 1367.85 1609.9C1367.85 1609.9 1367.85 1609.9 1367.84 1609.91C1367.69 1610.17 1367.55 1610.43 1367.4 1610.69C1367.4 1610.69 1367.39 1610.7 1367.39 1610.71C1367.24 1610.97 1367.1 1611.22 1366.96 1611.48C1366.96 1611.49 1366.95 1611.5 1366.95 1611.51C1366.81 1611.77 1366.67 1612.02 1366.54 1612.28C1366.53 1612.29 1366.53 1612.3 1366.52 1612.31C1366.39 1612.57 1366.26 1612.83 1366.13 1613.09L1366.11 1613.11C1365.98 1613.37 1365.85 1613.63 1365.72 1613.9C1365.72 1613.9 1365.72 1613.91 1365.71 1613.91C1365.58 1614.18 1365.46 1614.45 1365.33 1614.72C1371.07 1616.59 1377.58 1617.65 1384.48 1617.65C1391.38 1617.65 1397.92 1616.59 1403.67 1614.71C1403.54 1614.44 1403.41 1614.17 1403.28 1613.9C1403.28 1613.9 1403.28 1613.89 1403.28 1613.89C1403.15 1613.63 1403.02 1613.36 1402.88 1613.1C1402.88 1613.09 1402.88 1613.09 1402.87 1613.08C1402.74 1612.82 1402.61 1612.56 1402.47 1612.3C1402.47 1612.29 1402.47 1612.28 1402.46 1612.27C1402.33 1612.01 1402.19 1611.75 1402.05 1611.49C1402.04 1611.49 1402.04 1611.48 1402.04 1611.47C1401.9 1611.21 1401.75 1610.95 1401.61 1610.69C1401.61 1610.69 1401.6 1610.68 1401.6 1610.68C1400.12 1608.03 1398.43 1605.45 1396.5 1602.95C1396.48 1602.93 1396.47 1602.91 1396.45 1602.89C1396.28 1602.67 1396.1 1602.44 1395.93 1602.22C1395.89 1602.18 1395.86 1602.13 1395.82 1602.09C1395.66 1601.89 1395.5 1601.69 1395.34 1601.5C1395.29 1601.44 1395.24 1601.38 1395.2 1601.32C1395.05 1601.14 1394.9 1600.96 1394.74 1600.78C1394.68 1600.71 1394.62 1600.64 1394.57 1600.57C1394.42 1600.4 1394.28 1600.23 1394.13 1600.06C1394.06 1599.98 1393.99 1599.91 1393.93 1599.83C1393.79 1599.67 1393.64 1599.51 1393.5 1599.35C1393.43 1599.27 1393.35 1599.19 1393.28 1599.1C1393.14 1598.95 1393 1598.8 1392.86 1598.65C1392.78 1598.56 1392.7 1598.47 1392.62 1598.39C1392.48 1598.24 1392.35 1598.09 1392.21 1597.95C1392.12 1597.86 1392.04 1597.77 1391.95 1597.68C1391.81 1597.54 1391.68 1597.4 1391.54 1597.25C1391.45 1597.16 1391.36 1597.07 1391.27 1596.98C1391.13 1596.84 1390.99 1596.7 1390.86 1596.57C1390.76 1596.47 1390.67 1596.38 1390.57 1596.29L1390.57 1596.29Z" fill="#714A00"/>
<path d="M1383.55 1650.88C1383.25 1650.48 1382.86 1650.19 1382.41 1649.97C1381.91 1649.72 1381.37 1649.56 1380.83 1649.42C1380.29 1649.28 1379.74 1649.16 1379.2 1649.01C1378.91 1648.94 1378.62 1648.84 1378.37 1648.65C1378.24 1648.56 1378.13 1648.44 1378.09 1648.27C1378.01 1647.91 1378.19 1647.53 1378.52 1647.33C1378.77 1647.18 1379.05 1647.12 1379.33 1647.1C1379.69 1647.08 1380.05 1647.1 1380.4 1647.16C1381.13 1647.3 1381.79 1647.59 1382.37 1648.05C1382.51 1648.16 1382.64 1648.14 1382.75 1648.01C1383.07 1647.59 1383.38 1647.17 1383.7 1646.75C1383.78 1646.66 1383.76 1646.52 1383.66 1646.44C1383.29 1646.15 1382.89 1645.9 1382.46 1645.7C1381.64 1645.33 1380.77 1645.15 1379.87 1645.16C1379.44 1645.17 1379.02 1645.19 1378.61 1645.28C1378.04 1645.41 1377.52 1645.62 1377.05 1645.96C1376.54 1646.33 1376.18 1646.8 1375.98 1647.39C1375.84 1647.79 1375.81 1648.2 1375.85 1648.62C1375.88 1648.95 1375.96 1649.26 1376.11 1649.56C1376.36 1650.06 1376.77 1650.42 1377.26 1650.7C1377.76 1650.98 1378.3 1651.15 1378.86 1651.3C1379.43 1651.45 1380.01 1651.58 1380.59 1651.73C1380.87 1651.81 1381.15 1651.91 1381.41 1652.07C1381.9 1652.38 1381.94 1652.92 1381.6 1653.32C1381.48 1653.46 1381.33 1653.57 1381.17 1653.65C1380.87 1653.79 1380.55 1653.85 1380.22 1653.87C1379.87 1653.89 1379.52 1653.87 1379.18 1653.8C1378.33 1653.64 1377.58 1653.28 1376.94 1652.7C1376.79 1652.57 1376.65 1652.58 1376.52 1652.75C1376.22 1653.17 1375.93 1653.58 1375.62 1654C1375.54 1654.12 1375.55 1654.24 1375.67 1654.34C1376.4 1654.98 1377.24 1655.41 1378.19 1655.64C1378.69 1655.76 1379.19 1655.82 1379.81 1655.81C1380.2 1655.81 1380.69 1655.78 1381.18 1655.69C1381.68 1655.59 1382.16 1655.43 1382.6 1655.16C1383.55 1654.58 1384.02 1653.71 1384.05 1652.61C1384.05 1652.4 1384.04 1652.18 1384.01 1651.97C1383.95 1651.57 1383.8 1651.21 1383.56 1650.88L1383.55 1650.88Z" fill="#714A00"/>
<path d="M1392.96 1652.01C1392.93 1651.72 1392.93 1651.43 1392.89 1651.15C1392.81 1650.52 1392.6 1649.94 1392.25 1649.41C1391.81 1648.74 1391.21 1648.26 1390.46 1647.99C1390.06 1647.85 1389.66 1647.79 1389.24 1647.77C1388.74 1647.74 1388.26 1647.8 1387.78 1647.96C1386.73 1648.31 1385.95 1648.98 1385.46 1649.96C1385.19 1650.5 1385.07 1651.08 1385.06 1651.67C1385.06 1652.02 1385.07 1652.36 1385.14 1652.7C1385.43 1653.96 1386.16 1654.88 1387.33 1655.44C1387.82 1655.67 1388.33 1655.8 1388.88 1655.8C1389.06 1655.8 1389.24 1655.81 1389.42 1655.8C1389.68 1655.78 1389.94 1655.76 1390.2 1655.72C1390.93 1655.6 1391.6 1655.32 1392.21 1654.89C1392.35 1654.79 1392.37 1654.69 1392.27 1654.55C1392.07 1654.25 1391.86 1653.96 1391.66 1653.66C1391.55 1653.51 1391.45 1653.49 1391.29 1653.6C1391 1653.79 1390.69 1653.95 1390.35 1654.05C1390.07 1654.13 1389.78 1654.18 1389.48 1654.19C1389.26 1654.2 1389.04 1654.2 1388.82 1654.15C1387.97 1653.93 1387.45 1653.4 1387.24 1652.55C1387.22 1652.46 1387.24 1652.43 1387.34 1652.43C1388.23 1652.43 1389.13 1652.43 1390.02 1652.43C1390.92 1652.43 1391.81 1652.43 1392.71 1652.43C1392.89 1652.43 1392.97 1652.34 1392.96 1652.16C1392.96 1652.11 1392.96 1652.06 1392.96 1652.01V1652.01ZM1390.89 1651.06C1390.78 1651.06 1390.68 1651.06 1390.57 1651.06H1389.09C1388.5 1651.06 1387.9 1651.06 1387.31 1651.06C1387.2 1651.06 1387.19 1651.04 1387.2 1650.94C1387.31 1650.3 1387.66 1649.84 1388.24 1649.55C1388.47 1649.44 1388.72 1649.39 1388.98 1649.38C1389.32 1649.36 1389.65 1649.39 1389.97 1649.54C1390.5 1649.8 1390.83 1650.22 1390.95 1650.79C1390.96 1650.85 1390.97 1650.9 1390.98 1650.96C1390.98 1651.04 1390.97 1651.06 1390.89 1651.06L1390.89 1651.06Z" fill="#714A00"/>
<path d="M1401.42 1685.84C1409.67 1668.05 1414.95 1639.92 1404.16 1615.78L1404.04 1615.82C1397.95 1617.81 1391.37 1618.82 1384.48 1618.82C1377.59 1618.82 1371.04 1617.81 1364.96 1615.83L1364.84 1615.79C1354.06 1639.93 1359.33 1668.05 1367.58 1685.84C1367.58 1685.84 1346.42 1696.71 1361.31 1718H1361.34C1361.89 1703.81 1372.04 1692.5 1384.48 1692.5C1396.92 1692.5 1407.07 1703.81 1407.63 1718H1407.69C1422.58 1696.71 1401.42 1685.84 1401.42 1685.84H1401.42ZM1397.25 1658.28C1397.25 1658.4 1397.22 1658.5 1397.09 1658.54H1373.32C1373.2 1658.5 1373.16 1658.41 1373.17 1658.29C1373.17 1658.29 1373.17 1658.28 1373.17 1658.28C1373.17 1650.13 1373.17 1641.99 1373.17 1633.84C1373.17 1633.8 1373.17 1633.76 1373.18 1633.72C1373.19 1633.65 1373.23 1633.61 1373.31 1633.59C1373.34 1633.59 1373.38 1633.58 1373.41 1633.58C1380.65 1633.58 1387.88 1633.58 1395.12 1633.58C1395.14 1633.58 1395.16 1633.58 1395.18 1633.58C1395.33 1633.6 1395.4 1633.73 1395.31 1633.85C1395.3 1633.87 1395.29 1633.89 1395.28 1633.9C1394.65 1634.75 1394.02 1635.6 1393.39 1636.44C1391.96 1638.37 1390.53 1640.3 1389.1 1642.23C1389 1642.37 1388.84 1642.37 1388.72 1642.25C1388.58 1642.1 1388.44 1641.94 1388.31 1641.79C1387.71 1641.14 1387.12 1640.48 1386.52 1639.83C1386.39 1639.68 1386.22 1639.68 1386.11 1639.84C1385.69 1640.38 1385.27 1640.92 1384.85 1641.46C1384.74 1641.6 1384.75 1641.71 1384.87 1641.83C1385.23 1642.19 1385.58 1642.56 1385.94 1642.92C1386.89 1643.89 1387.84 1644.86 1388.79 1645.82C1388.92 1645.95 1389.06 1645.95 1389.18 1645.82C1389.97 1644.95 1390.76 1644.07 1391.55 1643.2C1392.26 1642.41 1392.96 1641.63 1393.67 1640.84C1394.56 1639.85 1395.46 1638.86 1396.35 1637.86C1396.55 1637.64 1396.76 1637.42 1396.96 1637.2C1397.01 1637.14 1397.08 1637.12 1397.14 1637.15C1397.21 1637.18 1397.25 1637.23 1397.25 1637.31C1397.25 1637.35 1397.25 1637.39 1397.25 1637.43C1397.25 1644.38 1397.25 1651.33 1397.25 1658.28L1397.25 1658.28Z" fill="#714A00"/>
</g>
<defs>
<radialGradient id="paint0_radial_865_2330" cx="0" cy="0" r="1" gradientUnits="userSpaceOnUse" gradientTransform="translate(1388.5 1616.6) rotate(92.9946) scale(1866.35 3001.13)">
<stop stop-color="#714A00"/>
<stop offset="1" stop-color="#DB9000"/>
</radialGradient>
<clipPath id="clip0_865_2330">
<rect width="1440" height="2486" fill="white"/>
</clipPath>
</defs>
</svg>
