<svg width="1440" height="2486" viewBox="0 0 1440 2486" fill="none" xmlns="http://www.w3.org/2000/svg">
<path d="M1049 194.971C813.593 194.971 458.5 45.4995 -9.5 216L-125 1384.01L1586.32 1498.51C1599.48 943.341 1763.72 4.97837 1692.5 -57.5277C1571.15 -164.027 1635.32 194.971 1049 194.971Z" fill="#FEF0D3"/>
<path d="M1121 480.732C885.593 480.732 571.5 753.233 -35.5 663.733L-130 1852.77L1581.32 1967.27C1594.48 1412.1 1758.72 473.74 1687.5 411.234C1566.15 304.734 1707.32 480.732 1121 480.732Z" fill="#FCE2AF"/>
<path d="M776 1212.54C540.593 1212.54 92 803.037 -39.5358 973.537L-130 2573.04L1581.32 2687.54C1594.48 2132.37 1573.58 1084.54 1502.35 1022.04C1381 915.537 1115 1212.54 776 1212.54Z" fill="#FDD68A"/>
<path d="M1165.44 1986.27C993.871 1986.27 268.275 1696.64 -16.0857 1855.72L-109 2491H1474V1855.72C1428.34 1899.23 1302.69 1986.27 1165.44 1986.27Z" fill="#FCC55B"/>
</svg>
