<svg width="1440" height="2136" viewBox="0 0 1440 2136" fill="none" xmlns="http://www.w3.org/2000/svg">
<path d="M891.429 272.999C656.022 272.999 300.929 123.527 -167.07 294.027L-282.57 1462.04L1428.75 1576.54C1441.91 1021.37 1606.15 83.0057 1534.93 20.4997C1413.57 -86 1477.75 272.999 891.429 272.999Z" fill="#FEF0D3"/>
<path d="M1074.61 606.962C839.199 606.962 525.106 879.463 -81.8934 789.963L-176.393 1979L1534.93 2093.5C1548.09 1538.33 1712.33 599.97 1641.11 537.464C1519.75 430.964 1660.93 606.962 1074.61 606.962Z" fill="#FCE2AF"/>
<path d="M695.332 1224.51C459.925 1224.51 11.3321 815.008 -120.204 985.508L-210.668 2585.01L1500.66 2699.51C1513.82 2144.34 1492.91 1096.51 1421.69 1034.01C1300.33 927.508 1034.33 1224.51 695.332 1224.51Z" fill="#FDD68A"/>
<path d="M1165.44 1636.27C993.87 1636.27 268.275 1346.64 -16.0856 1505.72L-109 2141H1474V1505.72C1428.33 1549.23 1302.69 1636.27 1165.44 1636.27Z" fill="#FCC55B"/>
<path d="M-1 1932.82C920.127 1932.82 1381.33 2023.12 1379.33 1373.96C1379.33 1364.43 1391.82 1364.93 1391.82 1373.96C1391.82 1601.99 1413.98 1757.83 1440 1873.62V2138H-1V1932.82Z" fill="url(#paint0_radial_933_2339)"/>
<path d="M1390.57 1246.29C1390.43 1246.15 1390.29 1246.02 1390.15 1245.88C1390.06 1245.79 1389.96 1245.69 1389.86 1245.6C1389.72 1245.47 1389.58 1245.34 1389.44 1245.21C1389.34 1245.11 1389.24 1245.02 1389.14 1244.92C1389 1244.79 1388.85 1244.66 1388.71 1244.53C1388.61 1244.44 1388.5 1244.35 1388.4 1244.25C1388.26 1244.12 1388.11 1243.99 1387.96 1243.87C1387.86 1243.77 1387.76 1243.68 1387.65 1243.59C1387.5 1243.46 1387.35 1243.33 1387.2 1243.2C1387.09 1243.11 1386.99 1243.02 1386.89 1242.93C1386.73 1242.8 1386.57 1242.67 1386.41 1242.53C1386.31 1242.45 1386.21 1242.37 1386.11 1242.28C1385.93 1242.14 1385.75 1241.99 1385.57 1241.85C1385.48 1241.78 1385.4 1241.71 1385.31 1241.64C1385.04 1241.43 1384.77 1241.21 1384.5 1241C1384.23 1241.21 1383.96 1241.43 1383.69 1241.64C1383.6 1241.71 1383.52 1241.78 1383.43 1241.85C1383.25 1241.99 1383.07 1242.14 1382.9 1242.28C1382.8 1242.37 1382.7 1242.45 1382.59 1242.53C1382.44 1242.67 1382.27 1242.8 1382.12 1242.93C1382.01 1243.02 1381.91 1243.11 1381.8 1243.2C1381.65 1243.33 1381.5 1243.46 1381.35 1243.59C1381.24 1243.68 1381.14 1243.77 1381.04 1243.87C1380.89 1244 1380.74 1244.13 1380.6 1244.26C1380.5 1244.35 1380.39 1244.44 1380.29 1244.54C1380.15 1244.67 1380 1244.8 1379.86 1244.93C1379.76 1245.02 1379.66 1245.11 1379.56 1245.21C1379.42 1245.34 1379.28 1245.47 1379.14 1245.6C1379.04 1245.7 1378.94 1245.79 1378.85 1245.89C1378.71 1246.02 1378.57 1246.16 1378.43 1246.29C1378.33 1246.38 1378.24 1246.48 1378.15 1246.57C1378.01 1246.71 1377.87 1246.84 1377.73 1246.98C1377.64 1247.07 1377.55 1247.17 1377.46 1247.26C1377.32 1247.4 1377.19 1247.54 1377.05 1247.68C1376.96 1247.77 1376.88 1247.86 1376.79 1247.95C1376.65 1248.1 1376.52 1248.24 1376.38 1248.39C1376.3 1248.48 1376.22 1248.56 1376.14 1248.65C1376 1248.8 1375.86 1248.95 1375.72 1249.11C1375.65 1249.19 1375.57 1249.27 1375.5 1249.36C1375.35 1249.51 1375.21 1249.68 1375.07 1249.84C1375.01 1249.91 1374.94 1249.99 1374.87 1250.07C1374.72 1250.23 1374.58 1250.4 1374.43 1250.57C1374.38 1250.64 1374.32 1250.71 1374.26 1250.78C1374.11 1250.96 1373.95 1251.14 1373.8 1251.32C1373.76 1251.38 1373.71 1251.44 1373.66 1251.5C1373.5 1251.7 1373.34 1251.9 1373.18 1252.1C1373.14 1252.14 1373.11 1252.18 1373.07 1252.23C1372.89 1252.45 1372.72 1252.68 1372.54 1252.91C1372.53 1252.92 1372.52 1252.94 1372.5 1252.96C1370.77 1255.21 1369.22 1257.53 1367.85 1259.9C1367.85 1259.9 1367.85 1259.9 1367.84 1259.91C1367.69 1260.17 1367.55 1260.43 1367.4 1260.69C1367.4 1260.69 1367.39 1260.7 1367.39 1260.71C1367.24 1260.97 1367.1 1261.22 1366.96 1261.48C1366.96 1261.49 1366.95 1261.5 1366.95 1261.51C1366.81 1261.77 1366.67 1262.02 1366.54 1262.28C1366.53 1262.29 1366.53 1262.3 1366.52 1262.31C1366.39 1262.57 1366.26 1262.83 1366.13 1263.09L1366.11 1263.11C1365.98 1263.37 1365.85 1263.63 1365.72 1263.9C1365.72 1263.9 1365.72 1263.91 1365.71 1263.91C1365.58 1264.18 1365.46 1264.45 1365.33 1264.72C1371.07 1266.59 1377.58 1267.65 1384.48 1267.65C1391.38 1267.65 1397.92 1266.59 1403.67 1264.71C1403.54 1264.44 1403.41 1264.17 1403.28 1263.9C1403.28 1263.9 1403.28 1263.89 1403.28 1263.89C1403.15 1263.63 1403.02 1263.36 1402.88 1263.1C1402.88 1263.09 1402.88 1263.09 1402.87 1263.08C1402.74 1262.82 1402.61 1262.56 1402.47 1262.3C1402.47 1262.29 1402.47 1262.28 1402.46 1262.27C1402.33 1262.01 1402.19 1261.75 1402.05 1261.49C1402.04 1261.49 1402.04 1261.48 1402.04 1261.47C1401.9 1261.21 1401.75 1260.95 1401.61 1260.69C1401.61 1260.69 1401.6 1260.68 1401.6 1260.68C1400.12 1258.03 1398.43 1255.45 1396.5 1252.95C1396.48 1252.93 1396.47 1252.91 1396.45 1252.89C1396.28 1252.67 1396.1 1252.44 1395.93 1252.22C1395.89 1252.18 1395.86 1252.13 1395.82 1252.09C1395.66 1251.89 1395.5 1251.69 1395.34 1251.5C1395.29 1251.44 1395.24 1251.38 1395.2 1251.32C1395.05 1251.14 1394.9 1250.96 1394.74 1250.78C1394.68 1250.71 1394.62 1250.64 1394.57 1250.57C1394.42 1250.4 1394.28 1250.23 1394.13 1250.06C1394.06 1249.98 1393.99 1249.91 1393.93 1249.83C1393.79 1249.67 1393.64 1249.51 1393.5 1249.35C1393.43 1249.27 1393.35 1249.19 1393.28 1249.1C1393.14 1248.95 1393 1248.8 1392.86 1248.65C1392.78 1248.56 1392.7 1248.47 1392.62 1248.39C1392.48 1248.24 1392.35 1248.09 1392.21 1247.95C1392.12 1247.86 1392.04 1247.77 1391.95 1247.68C1391.81 1247.54 1391.68 1247.4 1391.54 1247.25C1391.45 1247.16 1391.36 1247.07 1391.27 1246.98C1391.13 1246.84 1390.99 1246.7 1390.86 1246.57C1390.76 1246.47 1390.67 1246.38 1390.57 1246.29L1390.57 1246.29Z" fill="#714A00"/>
<path d="M1383.55 1300.88C1383.25 1300.48 1382.86 1300.19 1382.41 1299.97C1381.91 1299.72 1381.37 1299.56 1380.83 1299.42C1380.29 1299.28 1379.74 1299.16 1379.2 1299.01C1378.91 1298.94 1378.62 1298.84 1378.37 1298.65C1378.24 1298.56 1378.13 1298.44 1378.09 1298.27C1378.01 1297.91 1378.19 1297.53 1378.52 1297.33C1378.77 1297.18 1379.05 1297.12 1379.33 1297.1C1379.69 1297.08 1380.05 1297.1 1380.4 1297.16C1381.13 1297.3 1381.79 1297.59 1382.37 1298.05C1382.51 1298.16 1382.64 1298.14 1382.75 1298.01C1383.07 1297.59 1383.38 1297.17 1383.7 1296.76C1383.78 1296.66 1383.76 1296.52 1383.66 1296.44C1383.29 1296.15 1382.89 1295.9 1382.46 1295.7C1381.64 1295.33 1380.77 1295.15 1379.87 1295.16C1379.44 1295.17 1379.02 1295.19 1378.61 1295.28C1378.04 1295.41 1377.52 1295.62 1377.05 1295.96C1376.54 1296.33 1376.18 1296.8 1375.98 1297.39C1375.84 1297.79 1375.81 1298.2 1375.85 1298.62C1375.88 1298.95 1375.96 1299.26 1376.11 1299.56C1376.36 1300.06 1376.77 1300.42 1377.26 1300.7C1377.76 1300.98 1378.3 1301.15 1378.86 1301.3C1379.43 1301.45 1380.01 1301.58 1380.59 1301.73C1380.87 1301.81 1381.15 1301.91 1381.41 1302.07C1381.9 1302.38 1381.94 1302.92 1381.6 1303.32C1381.48 1303.46 1381.33 1303.57 1381.17 1303.65C1380.87 1303.79 1380.55 1303.85 1380.22 1303.87C1379.87 1303.89 1379.52 1303.87 1379.18 1303.8C1378.33 1303.64 1377.58 1303.28 1376.94 1302.7C1376.79 1302.57 1376.65 1302.58 1376.52 1302.75C1376.22 1303.17 1375.93 1303.58 1375.62 1304C1375.54 1304.12 1375.55 1304.24 1375.67 1304.34C1376.4 1304.98 1377.24 1305.41 1378.19 1305.64C1378.69 1305.76 1379.19 1305.82 1379.81 1305.81C1380.2 1305.81 1380.69 1305.78 1381.18 1305.69C1381.68 1305.59 1382.16 1305.43 1382.6 1305.16C1383.55 1304.58 1384.02 1303.71 1384.05 1302.61C1384.05 1302.4 1384.04 1302.18 1384.01 1301.97C1383.95 1301.57 1383.8 1301.21 1383.56 1300.88L1383.55 1300.88Z" fill="#714A00"/>
<path d="M1392.96 1302.01C1392.93 1301.72 1392.93 1301.43 1392.89 1301.15C1392.81 1300.52 1392.6 1299.94 1392.25 1299.41C1391.81 1298.74 1391.21 1298.26 1390.46 1297.99C1390.06 1297.85 1389.66 1297.79 1389.24 1297.77C1388.74 1297.74 1388.26 1297.8 1387.78 1297.95C1386.73 1298.31 1385.95 1298.98 1385.46 1299.96C1385.19 1300.5 1385.07 1301.08 1385.06 1301.67C1385.06 1302.02 1385.07 1302.36 1385.14 1302.7C1385.43 1303.96 1386.16 1304.88 1387.33 1305.44C1387.82 1305.67 1388.33 1305.8 1388.88 1305.8C1389.06 1305.8 1389.24 1305.81 1389.42 1305.8C1389.68 1305.78 1389.94 1305.76 1390.2 1305.72C1390.93 1305.6 1391.6 1305.32 1392.21 1304.89C1392.35 1304.79 1392.37 1304.69 1392.27 1304.55C1392.07 1304.25 1391.86 1303.96 1391.66 1303.66C1391.55 1303.51 1391.45 1303.49 1391.29 1303.6C1391 1303.79 1390.69 1303.95 1390.35 1304.05C1390.07 1304.13 1389.78 1304.18 1389.48 1304.19C1389.26 1304.2 1389.04 1304.2 1388.82 1304.15C1387.97 1303.93 1387.45 1303.4 1387.24 1302.55C1387.22 1302.46 1387.24 1302.43 1387.34 1302.43C1388.23 1302.43 1389.13 1302.43 1390.02 1302.43C1390.92 1302.43 1391.81 1302.43 1392.71 1302.43C1392.89 1302.43 1392.97 1302.34 1392.96 1302.16C1392.96 1302.11 1392.96 1302.06 1392.96 1302.01V1302.01ZM1390.89 1301.06C1390.78 1301.06 1390.68 1301.06 1390.57 1301.06H1389.09C1388.5 1301.06 1387.9 1301.06 1387.31 1301.06C1387.2 1301.06 1387.19 1301.04 1387.2 1300.94C1387.31 1300.3 1387.66 1299.84 1388.24 1299.55C1388.47 1299.44 1388.72 1299.39 1388.98 1299.38C1389.32 1299.36 1389.65 1299.39 1389.97 1299.54C1390.5 1299.8 1390.83 1300.22 1390.95 1300.79C1390.96 1300.85 1390.97 1300.9 1390.98 1300.96C1390.98 1301.04 1390.97 1301.06 1390.89 1301.06L1390.89 1301.06Z" fill="#714A00"/>
<path d="M1401.42 1335.84C1409.67 1318.05 1414.95 1289.92 1404.16 1265.78L1404.04 1265.82C1397.95 1267.81 1391.37 1268.82 1384.48 1268.82C1377.59 1268.82 1371.04 1267.81 1364.96 1265.83L1364.84 1265.79C1354.06 1289.93 1359.33 1318.05 1367.58 1335.84C1367.58 1335.84 1346.42 1346.71 1361.31 1368H1361.34C1361.89 1353.81 1372.04 1342.5 1384.48 1342.5C1396.92 1342.5 1407.07 1353.81 1407.63 1368H1407.69C1422.58 1346.71 1401.42 1335.84 1401.42 1335.84H1401.42ZM1397.25 1308.28C1397.25 1308.4 1397.22 1308.5 1397.09 1308.54H1373.32C1373.2 1308.5 1373.16 1308.41 1373.17 1308.29C1373.17 1308.29 1373.17 1308.28 1373.17 1308.28C1373.17 1300.13 1373.17 1291.99 1373.17 1283.84C1373.17 1283.8 1373.17 1283.76 1373.18 1283.72C1373.19 1283.65 1373.23 1283.61 1373.31 1283.59C1373.34 1283.59 1373.38 1283.58 1373.41 1283.58C1380.65 1283.58 1387.88 1283.58 1395.12 1283.58C1395.14 1283.58 1395.16 1283.58 1395.18 1283.58C1395.33 1283.6 1395.4 1283.73 1395.31 1283.85C1395.3 1283.87 1395.29 1283.89 1395.28 1283.9C1394.65 1284.75 1394.02 1285.6 1393.39 1286.44C1391.96 1288.37 1390.53 1290.3 1389.1 1292.23C1389 1292.37 1388.84 1292.37 1388.72 1292.25C1388.58 1292.1 1388.44 1291.94 1388.31 1291.79C1387.71 1291.14 1387.12 1290.48 1386.52 1289.83C1386.39 1289.68 1386.22 1289.68 1386.11 1289.84C1385.69 1290.38 1385.27 1290.92 1384.85 1291.46C1384.74 1291.6 1384.75 1291.71 1384.87 1291.83C1385.23 1292.19 1385.58 1292.56 1385.94 1292.92C1386.89 1293.89 1387.84 1294.86 1388.79 1295.82C1388.92 1295.95 1389.06 1295.95 1389.18 1295.82C1389.97 1294.95 1390.76 1294.07 1391.55 1293.2C1392.26 1292.41 1392.96 1291.63 1393.67 1290.84C1394.56 1289.85 1395.46 1288.86 1396.35 1287.86C1396.55 1287.64 1396.76 1287.42 1396.96 1287.2C1397.01 1287.14 1397.08 1287.12 1397.14 1287.15C1397.21 1287.18 1397.25 1287.23 1397.25 1287.31C1397.25 1287.35 1397.25 1287.39 1397.25 1287.43C1397.25 1294.38 1397.25 1301.33 1397.25 1308.28L1397.25 1308.28Z" fill="#714A00"/>
<defs>
<radialGradient id="paint0_radial_933_2339" cx="0" cy="0" r="1" gradientUnits="userSpaceOnUse" gradientTransform="translate(1589.55 77.7607) rotate(91.342) scale(5609.07 4047.94)">
<stop stop-color="#714A00"/>
<stop offset="1" stop-color="#DB9000"/>
</radialGradient>
</defs>
</svg>
