<svg width="113.957" height="74.823" viewBox="0 0 113.957 74.823" xmlns="http://www.w3.org/2000/svg">
    <style>
        g {
        stroke: #ee805a;
        fill: #ee805a;
        style="stroke:#ee805a;stroke-width:0.40mm;fill:#ee805a"
        }
        @media ( prefers-color-scheme: dark ) {
        g {
        stroke: #3ddc91;
        fill: #3ddc91;
        style="stroke:#3ddc91;stroke-width:0.40mm;fill:#3ddc91"
        }
        }
    </style>
    <g id="svgGroup" stroke-linecap="round" fill-rule="nonzero" font-size="9pt" stroke-width="0.40mm">
        <path d="M 112.962 20.988 L 100.284 20.988 A 10.534 10.534 0 0 0 99.151 17.137 A 9.675 9.675 0 0 0 96.112 13.743 Q 92.759 11.379 87.59 11.171 A 25.223 25.223 0 0 0 86.577 11.151 Q 82.954 11.151 80.238 12.112 A 13.242 13.242 0 0 0 79.51 12.394 A 12.594 12.594 0 0 0 77.196 13.651 A 9.244 9.244 0 0 0 75 15.767 A 8.203 8.203 0 0 0 73.402 20.633 A 8.288 8.288 0 0 0 73.644 22.677 A 6.597 6.597 0 0 0 74.45 24.574 A 8.847 8.847 0 0 0 76.761 27.024 A 10.507 10.507 0 0 0 77.308 27.397 A 19.214 19.214 0 0 0 80.509 29.027 A 22.003 22.003 0 0 0 81.321 29.333 A 43.161 43.161 0 0 0 85.76 30.647 L 92.578 32.351 Q 96.697 33.31 100.515 34.944 A 28.494 28.494 0 0 1 106.986 38.756 A 26.723 26.723 0 0 1 107.369 39.063 Q 110.405 41.549 112.18 45.064 A 16.165 16.165 0 0 1 113.663 49.665 A 21.647 21.647 0 0 1 113.956 53.303 A 21.18 21.18 0 0 1 112.979 59.832 A 18.577 18.577 0 0 1 110.689 64.542 A 20.126 20.126 0 0 1 104.508 70.403 A 26.144 26.144 0 0 1 101.261 72.106 A 30.112 30.112 0 0 1 94.688 74.101 Q 91.584 74.687 88.029 74.797 A 53.835 53.835 0 0 1 86.364 74.823 A 46.195 46.195 0 0 1 79.369 74.32 Q 75.545 73.734 72.308 72.465 A 28.098 28.098 0 0 1 71.644 72.195 A 23.638 23.638 0 0 1 65.645 68.599 A 20.471 20.471 0 0 1 61.914 64.525 Q 58.416 59.482 58.132 52.238 L 71.094 52.238 Q 71.378 56.037 73.438 58.559 A 12.132 12.132 0 0 0 77.909 61.948 A 14.704 14.704 0 0 0 78.817 62.323 A 19.446 19.446 0 0 0 83.4 63.405 A 24.679 24.679 0 0 0 86.257 63.566 A 24.133 24.133 0 0 0 90.025 63.286 A 17.578 17.578 0 0 0 93.803 62.27 Q 97.053 60.973 98.899 58.647 A 8.665 8.665 0 0 0 100.781 53.245 A 10.676 10.676 0 0 0 100.781 53.196 A 8.27 8.27 0 0 0 100.467 50.973 A 6.473 6.473 0 0 0 99.112 48.491 Q 97.606 46.773 94.999 45.567 A 18.416 18.416 0 0 0 94.549 45.366 Q 91.814 44.189 88.228 43.244 A 63.716 63.716 0 0 0 87.713 43.111 L 79.439 40.981 A 43.877 43.877 0 0 1 73.232 38.912 Q 69.871 37.487 67.255 35.589 A 24.002 24.002 0 0 1 65.252 33.967 Q 60.05 29.262 60.05 21.449 A 19.919 19.919 0 0 1 61.156 14.724 A 17.954 17.954 0 0 1 63.548 10.192 A 22.258 22.258 0 0 1 70.886 3.775 A 27.457 27.457 0 0 1 73.082 2.682 A 30.926 30.926 0 0 1 81.694 0.317 A 39.217 39.217 0 0 1 86.754 0 A 37.895 37.895 0 0 1 93.594 0.59 A 28.368 28.368 0 0 1 100.337 2.682 A 24.157 24.157 0 0 1 106.1 6.334 A 20.773 20.773 0 0 1 109.517 10.103 Q 112.855 14.844 112.962 20.988 Z M 47.585 73.722 L 0 73.722 L 0 0.995 L 47.301 0.995 L 47.301 12.039 L 13.175 12.039 L 13.175 31.783 L 44.851 31.783 L 44.851 42.827 L 13.175 42.827 L 13.175 62.678 L 47.585 62.678 L 47.585 73.722 Z"
              vector-effect="non-scaling-stroke"/>
    </g>
</svg>