<svg xmlns="http://www.w3.org/2000/svg" viewBox="0 0 1035.973 150">
    <svg height="150" viewBox="0 0 21 21" width="150" xmlns="http://www.w3.org/2000/svg" x="0">
        <g fill="none" fill-rule="evenodd" stroke-linecap="round" stroke="#1ea766" stroke-linejoin="round"
           transform="translate(1 1)">
            <path d="m.5 9.5 9-9 9 9"/>
            <path d="m2.5 7.5v7c0 1.1045695.8954305 2 2 2h10c1.1045695 0 2-.8954305 2-2v-7"/>
            <path d="m6.5 10.5 2 2 4-4"/>
        </g>
    </svg>
    <svg width="935.973" height="160" viewBox="0 0 1055.973 80.346" xmlns="http://www.w3.org/2000/svg" x="170">
        <g id="svgGroup" stroke-linecap="round" fill-rule="nonzero" font-size="9pt" stroke="#1ea766"
           stroke-width="0.40mm" fill="#1ea766" style="stroke:#1ea766;stroke-width:0.40mm;fill:#1ea766">
            <path d="M 158.381 76.244 L 145.526 76.244 L 145.526 21.699 L 157.813 21.699 L 157.813 30.967 L 158.452 30.967 A 15.022 15.022 0 0 1 161.64 25.708 A 14.448 14.448 0 0 1 164.098 23.634 A 15.475 15.475 0 0 1 170.553 21.198 A 20.221 20.221 0 0 1 173.509 20.989 Q 179.048 20.989 182.866 23.67 A 14.237 14.237 0 0 1 188.246 30.967 L 188.814 30.967 Q 190.625 26.422 194.94 23.705 A 17.493 17.493 0 0 1 201.636 21.254 A 22.941 22.941 0 0 1 205.185 20.989 A 19.441 19.441 0 0 1 210.944 21.805 A 15.619 15.619 0 0 1 217.472 25.747 A 15.208 15.208 0 0 1 221.219 32.147 Q 222.23 35.425 222.23 39.632 L 222.23 76.244 L 209.339 76.244 L 209.339 41.621 A 15.089 15.089 0 0 0 209.102 38.849 Q 208.821 37.346 208.206 36.179 A 6.905 6.905 0 0 0 206.641 34.181 Q 203.942 31.82 200.036 31.82 A 11.996 11.996 0 0 0 196.971 32.189 A 8.406 8.406 0 0 0 192.773 34.714 Q 190.163 37.608 190.163 42.225 L 190.163 76.244 L 177.557 76.244 L 177.557 41.088 A 11.394 11.394 0 0 0 177.2 38.158 A 8.262 8.262 0 0 0 175.018 34.341 A 8.561 8.561 0 0 0 169.99 31.924 A 11.847 11.847 0 0 0 168.395 31.82 A 9.411 9.411 0 0 0 163.352 33.222 Q 161.08 34.625 159.73 37.164 A 11.416 11.416 0 0 0 158.541 40.85 A 14.931 14.931 0 0 0 158.381 43.077 L 158.381 76.244 Z M 872.124 76.244 L 859.268 76.244 L 859.268 21.699 L 871.555 21.699 L 871.555 30.967 L 872.195 30.967 A 15.022 15.022 0 0 1 875.383 25.708 A 14.448 14.448 0 0 1 877.841 23.634 A 15.475 15.475 0 0 1 884.296 21.198 A 20.221 20.221 0 0 1 887.251 20.989 Q 892.791 20.989 896.609 23.67 A 14.237 14.237 0 0 1 901.989 30.967 L 902.557 30.967 Q 904.368 26.422 908.683 23.705 A 17.493 17.493 0 0 1 915.379 21.254 A 22.941 22.941 0 0 1 918.928 20.989 A 19.441 19.441 0 0 1 924.687 21.805 A 15.619 15.619 0 0 1 931.214 25.747 A 15.208 15.208 0 0 1 934.962 32.147 Q 935.973 35.425 935.973 39.632 L 935.973 76.244 L 923.082 76.244 L 923.082 41.621 A 15.089 15.089 0 0 0 922.845 38.849 Q 922.564 37.346 921.948 36.179 A 6.905 6.905 0 0 0 920.384 34.181 Q 917.685 31.82 913.778 31.82 A 11.996 11.996 0 0 0 910.714 32.189 A 8.406 8.406 0 0 0 906.516 34.714 Q 903.906 37.608 903.906 42.225 L 903.906 76.244 L 891.3 76.244 L 891.3 41.088 A 11.394 11.394 0 0 0 890.943 38.158 A 8.262 8.262 0 0 0 888.761 34.341 A 8.561 8.561 0 0 0 883.733 31.924 A 11.847 11.847 0 0 0 882.138 31.82 A 9.411 9.411 0 0 0 877.095 33.222 Q 874.822 34.625 873.473 37.164 A 11.416 11.416 0 0 0 872.284 40.85 A 14.931 14.931 0 0 0 872.124 43.077 L 872.124 76.244 Z M 554.652 23.51 L 541.974 23.51 A 10.534 10.534 0 0 0 540.841 19.659 A 9.675 9.675 0 0 0 537.802 16.266 Q 534.449 13.901 529.28 13.693 A 25.223 25.223 0 0 0 528.267 13.673 Q 524.645 13.673 521.928 14.635 A 13.242 13.242 0 0 0 521.2 14.916 A 12.594 12.594 0 0 0 518.886 16.174 A 9.244 9.244 0 0 0 516.69 18.29 A 8.203 8.203 0 0 0 515.092 23.155 A 8.288 8.288 0 0 0 515.334 25.2 A 6.597 6.597 0 0 0 516.14 27.097 A 8.847 8.847 0 0 0 518.451 29.547 A 10.507 10.507 0 0 0 518.999 29.92 A 19.214 19.214 0 0 0 522.199 31.549 A 22.003 22.003 0 0 0 523.011 31.855 A 43.161 43.161 0 0 0 527.45 33.169 L 534.268 34.874 Q 538.388 35.832 542.205 37.466 A 28.494 28.494 0 0 1 548.676 41.278 A 26.723 26.723 0 0 1 549.059 41.585 Q 552.095 44.071 553.871 47.587 A 16.165 16.165 0 0 1 555.353 52.187 A 21.647 21.647 0 0 1 555.646 55.825 A 21.18 21.18 0 0 1 554.669 62.355 A 18.577 18.577 0 0 1 552.379 67.065 A 20.126 20.126 0 0 1 546.198 72.926 A 26.144 26.144 0 0 1 542.951 74.629 A 30.112 30.112 0 0 1 536.378 76.623 Q 533.275 77.21 529.719 77.32 A 53.835 53.835 0 0 1 528.054 77.345 A 46.195 46.195 0 0 1 521.059 76.842 Q 517.236 76.256 513.998 74.987 A 28.098 28.098 0 0 1 513.335 74.717 A 23.638 23.638 0 0 1 507.336 71.121 A 20.471 20.471 0 0 1 503.604 67.047 Q 500.107 62.004 499.822 54.76 L 512.784 54.76 Q 513.068 58.56 515.128 61.081 A 12.132 12.132 0 0 0 519.599 64.47 A 14.704 14.704 0 0 0 520.508 64.845 A 19.446 19.446 0 0 0 525.09 65.928 A 24.679 24.679 0 0 0 527.947 66.088 A 24.133 24.133 0 0 0 531.716 65.808 A 17.578 17.578 0 0 0 535.494 64.792 Q 538.743 63.496 540.589 61.17 A 8.665 8.665 0 0 0 542.471 55.768 A 10.676 10.676 0 0 0 542.472 55.719 A 8.27 8.27 0 0 0 542.157 53.496 A 6.473 6.473 0 0 0 540.803 51.014 Q 539.297 49.295 536.689 48.089 A 18.416 18.416 0 0 0 536.239 47.889 Q 533.504 46.712 529.918 45.767 A 63.716 63.716 0 0 0 529.403 45.634 L 521.129 43.503 A 43.877 43.877 0 0 1 514.923 41.435 Q 511.561 40.01 508.946 38.111 A 24.002 24.002 0 0 1 506.942 36.489 Q 501.74 31.784 501.74 23.972 A 19.919 19.919 0 0 1 502.847 17.246 A 17.954 17.954 0 0 1 505.238 12.715 A 22.258 22.258 0 0 1 512.576 6.297 A 27.457 27.457 0 0 1 514.773 5.204 A 30.926 30.926 0 0 1 523.384 2.84 A 39.217 39.217 0 0 1 528.445 2.523 A 37.895 37.895 0 0 1 535.285 3.112 A 28.368 28.368 0 0 1 542.028 5.204 A 24.157 24.157 0 0 1 547.79 8.857 A 20.773 20.773 0 0 1 551.207 12.626 Q 554.545 17.367 554.652 23.51 Z M 47.585 76.244 L 0 76.244 L 0 3.517 L 47.301 3.517 L 47.301 14.561 L 13.175 14.561 L 13.175 34.305 L 44.851 34.305 L 44.851 45.35 L 13.175 45.35 L 13.175 65.2 L 47.585 65.2 L 47.585 76.244 Z M 134.659 48.546 L 134.659 52.487 L 89.95 52.487 L 89.95 43.823 L 122.337 43.823 Q 122.301 40.129 120.739 37.235 A 11.69 11.69 0 0 0 116.388 32.672 A 11.736 11.736 0 0 0 111.752 31.114 A 14.935 14.935 0 0 0 109.908 31.003 A 13.841 13.841 0 0 0 106.017 31.531 A 11.729 11.729 0 0 0 102.983 32.903 A 13.247 13.247 0 0 0 98.349 37.874 Q 96.697 40.946 96.662 44.604 L 96.662 52.168 A 21.817 21.817 0 0 0 96.972 55.939 Q 97.396 58.357 98.402 60.318 A 12.645 12.645 0 0 0 101.428 64.207 A 12.033 12.033 0 0 0 103.267 65.502 A 13.414 13.414 0 0 0 108.037 67.116 A 17.46 17.46 0 0 0 110.582 67.296 A 17.048 17.048 0 0 0 113.413 67.07 A 13.539 13.539 0 0 0 115.661 66.497 A 11.083 11.083 0 0 0 119.471 64.256 A 10.756 10.756 0 0 0 119.602 64.135 A 9.778 9.778 0 0 0 121.942 60.725 A 11.526 11.526 0 0 0 122.124 60.264 L 134.126 61.614 A 18.676 18.676 0 0 1 129.812 69.906 A 20.2 20.2 0 0 1 123.844 74.415 A 24.751 24.751 0 0 1 121.697 75.374 A 27.435 27.435 0 0 1 115.515 76.965 A 36.398 36.398 0 0 1 110.405 77.31 A 32.947 32.947 0 0 1 103.434 76.606 A 24.766 24.766 0 0 1 96.254 73.883 A 22.92 22.92 0 0 1 87.109 64.153 A 28.883 28.883 0 0 1 84.446 55.903 A 39.254 39.254 0 0 1 83.913 49.291 A 37.366 37.366 0 0 1 84.667 41.617 A 28.897 28.897 0 0 1 87.127 34.501 Q 90.341 28.127 96.129 24.558 A 23.871 23.871 0 0 1 105.496 21.271 A 30.832 30.832 0 0 1 109.73 20.989 A 28.083 28.083 0 0 1 118.701 22.409 A 26.698 26.698 0 0 1 119.265 22.604 Q 123.757 24.22 127.219 27.594 A 21.851 21.851 0 0 1 131.207 32.953 A 27.664 27.664 0 0 1 132.67 36.17 A 28.496 28.496 0 0 1 134.13 41.672 Q 134.56 44.252 134.641 47.177 A 49.73 49.73 0 0 1 134.659 48.546 Z M 283.7 48.546 L 283.7 52.487 L 238.991 52.487 L 238.991 43.823 L 271.378 43.823 Q 271.342 40.129 269.78 37.235 A 11.69 11.69 0 0 0 265.43 32.672 A 11.736 11.736 0 0 0 260.793 31.114 A 14.935 14.935 0 0 0 258.949 31.003 A 13.841 13.841 0 0 0 255.058 31.531 A 11.729 11.729 0 0 0 252.024 32.903 A 13.247 13.247 0 0 0 247.39 37.874 Q 245.739 40.946 245.703 44.604 L 245.703 52.168 A 21.817 21.817 0 0 0 246.013 55.939 Q 246.437 58.357 247.443 60.318 A 12.645 12.645 0 0 0 250.469 64.207 A 12.033 12.033 0 0 0 252.308 65.502 A 13.414 13.414 0 0 0 257.079 67.116 A 17.46 17.46 0 0 0 259.624 67.296 A 17.048 17.048 0 0 0 262.454 67.07 A 13.539 13.539 0 0 0 264.702 66.497 A 11.083 11.083 0 0 0 268.512 64.256 A 10.756 10.756 0 0 0 268.643 64.135 A 9.778 9.778 0 0 0 270.983 60.725 A 11.526 11.526 0 0 0 271.165 60.264 L 283.168 61.614 A 18.676 18.676 0 0 1 278.853 69.906 A 20.2 20.2 0 0 1 272.885 74.415 A 24.751 24.751 0 0 1 270.739 75.374 A 27.435 27.435 0 0 1 264.557 76.965 A 36.398 36.398 0 0 1 259.446 77.31 A 32.947 32.947 0 0 1 252.475 76.606 A 24.766 24.766 0 0 1 245.295 73.883 A 22.92 22.92 0 0 1 236.151 64.153 A 28.883 28.883 0 0 1 233.487 55.903 A 39.254 39.254 0 0 1 232.955 49.291 A 37.366 37.366 0 0 1 233.709 41.617 A 28.897 28.897 0 0 1 236.168 34.501 Q 239.382 28.127 245.17 24.558 A 23.871 23.871 0 0 1 254.537 21.271 A 30.832 30.832 0 0 1 258.771 20.989 A 28.083 28.083 0 0 1 267.742 22.409 A 26.698 26.698 0 0 1 268.306 22.604 Q 272.798 24.22 276.261 27.594 A 21.851 21.851 0 0 1 280.248 32.953 A 27.664 27.664 0 0 1 281.712 36.17 A 28.496 28.496 0 0 1 283.172 41.672 Q 283.601 44.252 283.682 47.177 A 49.73 49.73 0 0 1 283.7 48.546 Z M 615.199 48.546 L 615.199 52.487 L 570.49 52.487 L 570.49 43.823 L 602.876 43.823 Q 602.841 40.129 601.278 37.235 A 11.69 11.69 0 0 0 596.928 32.672 A 11.736 11.736 0 0 0 592.292 31.114 A 14.935 14.935 0 0 0 590.447 31.003 A 13.841 13.841 0 0 0 586.557 31.531 A 11.729 11.729 0 0 0 583.523 32.903 A 13.247 13.247 0 0 0 578.888 37.874 Q 577.237 40.946 577.202 44.604 L 577.202 52.168 A 21.817 21.817 0 0 0 577.511 55.939 Q 577.936 58.357 578.942 60.318 A 12.645 12.645 0 0 0 581.968 64.207 A 12.033 12.033 0 0 0 583.807 65.502 A 13.414 13.414 0 0 0 588.577 67.116 A 17.46 17.46 0 0 0 591.122 67.296 A 17.048 17.048 0 0 0 593.953 67.07 A 13.539 13.539 0 0 0 596.2 66.497 A 11.083 11.083 0 0 0 600.011 64.256 A 10.756 10.756 0 0 0 600.142 64.135 A 9.778 9.778 0 0 0 602.482 60.725 A 11.526 11.526 0 0 0 602.663 60.264 L 614.666 61.614 A 18.676 18.676 0 0 1 610.352 69.906 A 20.2 20.2 0 0 1 604.384 74.415 A 24.751 24.751 0 0 1 602.237 75.374 A 27.435 27.435 0 0 1 596.055 76.965 A 36.398 36.398 0 0 1 590.945 77.31 A 32.947 32.947 0 0 1 583.974 76.606 A 24.766 24.766 0 0 1 576.793 73.883 A 22.92 22.92 0 0 1 567.649 64.153 A 28.883 28.883 0 0 1 564.986 55.903 A 39.254 39.254 0 0 1 564.453 49.291 A 37.366 37.366 0 0 1 565.207 41.617 A 28.897 28.897 0 0 1 567.667 34.501 Q 570.881 28.127 576.669 24.558 A 23.871 23.871 0 0 1 586.035 21.271 A 30.832 30.832 0 0 1 590.27 20.989 A 28.083 28.083 0 0 1 599.241 22.409 A 26.698 26.698 0 0 1 599.805 22.604 Q 604.297 24.22 607.759 27.594 A 21.851 21.851 0 0 1 611.747 32.953 A 27.664 27.664 0 0 1 613.21 36.17 A 28.496 28.496 0 0 1 614.67 41.672 Q 615.1 44.252 615.18 47.177 A 49.73 49.73 0 0 1 615.199 48.546 Z M 700.533 48.546 L 700.533 52.487 L 655.824 52.487 L 655.824 43.823 L 688.21 43.823 Q 688.175 40.129 686.612 37.235 A 11.69 11.69 0 0 0 682.262 32.672 A 11.736 11.736 0 0 0 677.625 31.114 A 14.935 14.935 0 0 0 675.781 31.003 A 13.841 13.841 0 0 0 671.891 31.531 A 11.729 11.729 0 0 0 668.857 32.903 A 13.247 13.247 0 0 0 664.222 37.874 Q 662.571 40.946 662.536 44.604 L 662.536 52.168 A 21.817 21.817 0 0 0 662.845 55.939 Q 663.27 58.357 664.276 60.318 A 12.645 12.645 0 0 0 667.302 64.207 A 12.033 12.033 0 0 0 669.141 65.502 A 13.414 13.414 0 0 0 673.911 67.116 A 17.46 17.46 0 0 0 676.456 67.296 A 17.048 17.048 0 0 0 679.286 67.07 A 13.539 13.539 0 0 0 681.534 66.497 A 11.083 11.083 0 0 0 685.345 64.256 A 10.756 10.756 0 0 0 685.476 64.135 A 9.778 9.778 0 0 0 687.816 60.725 A 11.526 11.526 0 0 0 687.997 60.264 L 700 61.614 A 18.676 18.676 0 0 1 695.685 69.906 A 20.2 20.2 0 0 1 689.717 74.415 A 24.751 24.751 0 0 1 687.571 75.374 A 27.435 27.435 0 0 1 681.389 76.965 A 36.398 36.398 0 0 1 676.278 77.31 A 32.947 32.947 0 0 1 669.307 76.606 A 24.766 24.766 0 0 1 662.127 73.883 A 22.92 22.92 0 0 1 652.983 64.153 A 28.883 28.883 0 0 1 650.319 55.903 A 39.254 39.254 0 0 1 649.787 49.291 A 37.366 37.366 0 0 1 650.541 41.617 A 28.897 28.897 0 0 1 653.001 34.501 Q 656.214 28.127 662.003 24.558 A 23.871 23.871 0 0 1 671.369 21.271 A 30.832 30.832 0 0 1 675.604 20.989 A 28.083 28.083 0 0 1 684.575 22.409 A 26.698 26.698 0 0 1 685.138 22.604 Q 689.631 24.22 693.093 27.594 A 21.851 21.851 0 0 1 697.08 32.953 A 27.664 27.664 0 0 1 698.544 36.17 A 28.496 28.496 0 0 1 700.004 41.672 Q 700.434 44.252 700.514 47.177 A 49.73 49.73 0 0 1 700.533 48.546 Z M 307.422 44.284 L 307.422 76.244 L 294.567 76.244 L 294.567 21.699 L 306.854 21.699 L 306.854 30.967 L 307.493 30.967 Q 309.375 26.386 313.512 23.688 A 16.109 16.109 0 0 1 319.078 21.443 A 22.871 22.871 0 0 1 323.757 20.989 A 22.273 22.273 0 0 1 328.89 21.555 A 17.529 17.529 0 0 1 333.612 23.403 A 16.341 16.341 0 0 1 339.998 30.115 A 19.661 19.661 0 0 1 340.146 30.399 A 20.252 20.252 0 0 1 341.932 35.723 Q 342.437 38.312 342.437 41.318 A 36.078 36.078 0 0 1 342.436 41.514 L 342.436 76.244 L 329.581 76.244 L 329.581 43.503 Q 329.581 39.159 327.8 36.316 A 9.529 9.529 0 0 0 326.758 34.945 A 9.271 9.271 0 0 0 321.453 32.073 A 13.574 13.574 0 0 0 318.963 31.855 Q 315.589 31.855 312.979 33.329 A 10.311 10.311 0 0 0 308.896 37.573 Q 307.487 40.221 307.425 43.94 A 20.678 20.678 0 0 0 307.422 44.284 Z M 724.254 44.284 L 724.254 76.244 L 711.399 76.244 L 711.399 21.699 L 723.686 21.699 L 723.686 30.967 L 724.325 30.967 Q 726.207 26.386 730.344 23.688 A 16.109 16.109 0 0 1 735.911 21.443 A 22.871 22.871 0 0 1 740.589 20.989 A 22.273 22.273 0 0 1 745.722 21.555 A 17.529 17.529 0 0 1 750.444 23.403 A 16.341 16.341 0 0 1 756.831 30.115 A 19.661 19.661 0 0 1 756.978 30.399 A 20.252 20.252 0 0 1 758.765 35.723 Q 759.269 38.312 759.269 41.318 A 36.078 36.078 0 0 1 759.268 41.514 L 759.268 76.244 L 746.413 76.244 L 746.413 43.503 Q 746.413 39.159 744.632 36.316 A 9.529 9.529 0 0 0 743.59 34.945 A 9.271 9.271 0 0 0 738.285 32.073 A 13.574 13.574 0 0 0 735.795 31.855 Q 732.422 31.855 729.812 33.329 A 10.311 10.311 0 0 0 725.728 37.573 Q 724.319 40.221 724.257 43.94 A 20.678 20.678 0 0 0 724.254 44.284 Z M 833.203 53.304 L 833.203 21.699 L 846.058 21.699 L 846.058 76.244 L 833.594 76.244 L 833.594 66.55 L 833.026 66.55 Q 831.179 71.131 826.971 74.043 A 16.052 16.052 0 0 1 820.785 76.579 A 22.067 22.067 0 0 1 816.619 76.955 A 20.368 20.368 0 0 1 811.351 76.298 A 16.917 16.917 0 0 1 807.156 74.558 A 16.095 16.095 0 0 1 801.272 68.542 A 19.719 19.719 0 0 1 800.746 67.562 Q 798.575 63.237 798.446 57.201 A 36.028 36.028 0 0 1 798.437 56.429 L 798.437 21.699 L 811.293 21.699 L 811.293 54.44 A 15.321 15.321 0 0 0 811.66 57.892 Q 812.293 60.634 814.021 62.556 A 9.829 9.829 0 0 0 814.134 62.679 Q 816.974 65.733 821.591 65.733 A 11.748 11.748 0 0 0 826.929 64.433 A 13.651 13.651 0 0 0 827.095 64.348 A 11.104 11.104 0 0 0 831.093 60.797 A 13.401 13.401 0 0 0 831.481 60.211 A 10.801 10.801 0 0 0 832.837 56.836 Q 833.156 55.428 833.197 53.793 A 19.454 19.454 0 0 0 833.203 53.304 Z M 425.178 39.455 L 425.178 39.242 A 10.843 10.843 0 0 0 424.896 36.697 A 7.155 7.155 0 0 0 422.798 33.027 Q 420.419 30.825 415.945 30.825 A 17.528 17.528 0 0 0 412.946 31.066 Q 410.281 31.529 408.469 32.885 A 11.828 11.828 0 0 0 406.344 34.905 A 9.263 9.263 0 0 0 404.759 37.75 L 392.756 36.046 A 20.686 20.686 0 0 1 395.054 30.774 A 17.963 17.963 0 0 1 397.443 27.718 A 20.425 20.425 0 0 1 404.56 23.006 A 23.867 23.867 0 0 1 405.433 22.676 Q 410.156 20.989 415.874 20.989 Q 419.815 20.989 423.722 21.912 Q 427.628 22.835 430.859 24.948 A 15.5 15.5 0 0 1 435.794 30.209 A 18.281 18.281 0 0 1 436.062 30.683 A 15.232 15.232 0 0 1 437.524 34.688 Q 438.033 36.98 438.033 39.739 L 438.033 76.244 L 425.675 76.244 L 425.675 68.752 L 425.249 68.752 A 14.762 14.762 0 0 1 423.135 71.798 A 18.016 18.016 0 0 1 421.964 72.995 A 14.366 14.366 0 0 1 418.906 75.154 A 18.566 18.566 0 0 1 416.673 76.156 A 17.961 17.961 0 0 1 413.107 77.066 Q 411.523 77.31 409.745 77.341 A 29.833 29.833 0 0 1 409.233 77.345 Q 404.048 77.345 399.911 75.481 A 14.989 14.989 0 0 1 393.377 69.959 A 14.25 14.25 0 0 1 391.361 64.941 A 20.017 20.017 0 0 1 390.98 60.939 A 20.626 20.626 0 0 1 391.22 57.701 Q 391.501 55.936 392.111 54.479 A 11.133 11.133 0 0 1 392.685 53.304 A 13.192 13.192 0 0 1 397.337 48.475 A 22.901 22.901 0 0 1 402.187 46.247 A 27.045 27.045 0 0 1 403.995 45.722 A 55.137 55.137 0 0 1 411.683 44.355 A 408.03 408.03 0 0 0 413.967 44.112 Q 416.765 43.806 418.811 43.537 A 126.205 126.205 0 0 0 419.46 43.45 Q 422.443 43.041 423.81 42.171 A 2.836 2.836 0 0 0 425.129 40.113 A 4.321 4.321 0 0 0 425.178 39.455 Z M 425.213 56.678 L 425.213 50.25 A 2.927 2.927 0 0 1 424.781 50.539 Q 424.182 50.874 423.171 51.173 Q 421.733 51.6 419.957 51.919 A 98.398 98.398 0 0 1 416.442 52.487 A 1054.82 1054.82 0 0 1 415.202 52.664 Q 414.712 52.733 414.267 52.796 A 573.947 573.947 0 0 1 413.423 52.913 A 25.411 25.411 0 0 0 410.537 53.469 A 19.555 19.555 0 0 0 408.274 54.192 Q 406.001 55.08 404.688 56.66 A 5.55 5.55 0 0 0 403.529 59.124 A 7.871 7.871 0 0 0 403.374 60.726 A 7.715 7.715 0 0 0 403.68 62.962 A 5.75 5.75 0 0 0 405.966 66.088 Q 408.416 67.8 412.136 67.894 A 17.275 17.275 0 0 0 412.571 67.899 A 16.352 16.352 0 0 0 415.867 67.582 A 12.282 12.282 0 0 0 419.283 66.354 Q 422.124 64.81 423.668 62.253 A 10.583 10.583 0 0 0 425.213 56.678 Z M 359.162 61.969 L 359.162 8.631 L 372.017 8.631 L 372.017 59.838 Q 372.017 62.36 372.773 63.723 A 3.9 3.9 0 0 0 372.816 63.798 A 4.709 4.709 0 0 0 373.646 64.858 A 3.83 3.83 0 0 0 374.929 65.662 A 7.685 7.685 0 0 0 376.87 66.111 A 9.48 9.48 0 0 0 377.841 66.159 A 14.32 14.32 0 0 0 379.137 66.103 A 11.235 11.235 0 0 0 380.06 65.982 A 36.825 36.825 0 0 0 380.536 65.895 Q 381.049 65.798 381.403 65.713 A 8.463 8.463 0 0 0 381.605 65.662 L 383.771 75.712 Q 382.741 76.067 380.842 76.493 Q 379.387 76.819 377.443 76.937 A 35.667 35.667 0 0 1 376.207 76.99 Q 371.378 77.132 367.507 75.516 A 13.318 13.318 0 0 1 361.381 70.492 A 12.924 12.924 0 0 1 359.556 66.059 Q 359.161 64.24 359.161 62.127 A 22.765 22.765 0 0 1 359.162 61.969 Z M 351.42 21.699 L 351.42 31.642 L 382.777 31.642 L 382.777 21.699 L 351.42 21.699 Z M 60.192 3.517 L 73.047 3.517 L 73.047 76.244 L 60.192 76.244 L 60.192 3.517 Z M 450.994 3.517 L 463.849 3.517 L 463.849 76.244 L 450.994 76.244 L 450.994 3.517 Z M 626.065 3.517 L 638.92 3.517 L 638.92 76.244 L 626.065 76.244 L 626.065 3.517 Z M 785.227 76.244 L 772.372 76.244 L 772.372 21.699 L 785.227 21.699 L 785.227 76.244 Z M 778.835 13.957 Q 781.925 13.957 784.109 11.916 A 8.309 8.309 0 0 0 784.309 11.722 A 6.451 6.451 0 0 0 786.293 6.997 A 6.619 6.619 0 0 0 785.772 4.361 A 6.88 6.88 0 0 0 784.109 2.043 Q 781.925 0.002 778.835 0.002 Q 775.781 0.002 773.58 2.043 A 8.25 8.25 0 0 0 773.378 2.237 A 6.469 6.469 0 0 0 771.378 6.997 A 6.431 6.431 0 0 0 771.981 9.78 A 6.983 6.983 0 0 0 773.58 11.916 Q 775.781 13.957 778.835 13.957 Z"
                  vector-effect="non-scaling-stroke"/>
        </g>
    </svg>
</svg>