<svg width="1440" height="897" viewBox="0 0 1440 750" fill="none" xmlns="http://www.w3.org/2000/svg">
    <path d="M399 402C243.952 402 137 456.678 0 610.499V789.841L1560.35 835C1565.95 731.354 1566.38 524.063 1523.32 524.063C1486.71 524.063 1429 439.501 1394 305.498C1386.27 275.918 1369.88 297.661 1366.5 305.494L1365.88 306.943C1342.92 360.245 1256.44 561 886 561C677 561 554.048 402 399 402Z"
          fill="#58CF5D"/>
    <path d="M466.118 481.242C311.07 481.242 217.745 635.064 -1 635.064V900.841L1559.35 946C1564.95 842.354 1565.38 635.064 1522.32 635.064C1478.72 635.064 1421.5 437 1392.5 365.5C1386.62 351.001 1379.96 332.499 1361.5 365.5C1338 407.5 1182.6 603.077 937.186 603.077C691.776 603.077 621.165 481.242 466.118 481.242Z"
          fill="#81D88F"/>
    <path d="M-1 691.819C920.127 691.819 1381.33 782.117 1379.33 132.963C1379.33 123.429 1391.82 123.931 1391.82 132.963C1391.82 360.992 1413.98 516.829 1440 632.621V897H-1V691.819Z"
          fill="url(#paint0_radial_1034_2505)"/>
    <path d="M1390.57 5.28738C1390.43 5.15171 1390.29 5.0172 1390.15 4.8827C1390.06 4.78913 1389.96 4.69439 1389.86 4.60083C1389.72 4.46866 1389.58 4.3365 1389.44 4.2055C1389.34 4.11076 1389.24 4.01719 1389.14 3.92246C1389 3.79146 1388.85 3.66164 1388.71 3.53181C1388.61 3.43824 1388.5 3.34467 1388.4 3.25228C1388.26 3.12245 1388.11 2.99379 1387.96 2.86514C1387.86 2.77274 1387.76 2.68034 1387.65 2.58794C1387.5 2.45812 1387.35 2.32946 1387.2 2.2008C1387.09 2.11074 1386.99 2.02069 1386.89 1.9318C1386.73 1.79846 1386.57 1.6663 1386.41 1.53296C1386.31 1.44875 1386.21 1.36454 1386.11 1.2815C1385.93 1.13647 1385.75 0.992606 1385.57 0.847575C1385.48 0.777399 1385.4 0.707223 1385.31 0.638216C1385.04 0.425349 1384.77 0.212481 1384.5 0.00195312C1384.23 0.212481 1383.96 0.425349 1383.69 0.638216C1383.6 0.707223 1383.52 0.778569 1383.43 0.847575C1383.25 0.991436 1383.07 1.13647 1382.9 1.2815C1382.8 1.36454 1382.7 1.44875 1382.59 1.53296C1382.44 1.6663 1382.27 1.79846 1382.12 1.9318C1382.01 2.02069 1381.91 2.11074 1381.8 2.2008C1381.65 2.32946 1381.5 2.45929 1381.35 2.58911C1381.24 2.68151 1381.14 2.77391 1381.04 2.86748C1380.89 2.99613 1380.74 3.12479 1380.6 3.25461C1380.5 3.34818 1380.39 3.44175 1380.29 3.53649C1380.15 3.66631 1380 3.79614 1379.86 3.92597C1379.76 4.01953 1379.66 4.11427 1379.56 4.20901C1379.42 4.34001 1379.28 4.47217 1379.14 4.60433C1379.04 4.6979 1378.94 4.79264 1378.85 4.88621C1378.71 5.02071 1378.57 5.15522 1378.43 5.28972C1378.33 5.38329 1378.24 5.47569 1378.15 5.56926C1378.01 5.7061 1377.87 5.84411 1377.73 5.98213C1377.64 6.07335 1377.55 6.16575 1377.46 6.25815C1377.32 6.39967 1377.19 6.54119 1377.05 6.68272C1376.96 6.77278 1376.88 6.86167 1376.79 6.95172C1376.65 7.09792 1376.52 7.24412 1376.38 7.39033C1376.3 7.47688 1376.22 7.56343 1376.14 7.64998C1376 7.80203 1375.86 7.95407 1375.72 8.10729C1375.65 8.19033 1375.57 8.27221 1375.5 8.35525C1375.35 8.51431 1375.21 8.67455 1375.07 8.83478C1375.01 8.91198 1374.94 8.988 1374.87 9.0652C1374.72 9.23362 1374.58 9.40321 1374.43 9.5728C1374.38 9.64181 1374.32 9.71082 1374.26 9.77982C1374.11 9.96111 1373.95 10.1424 1373.8 10.3237C1373.76 10.3822 1373.71 10.4418 1373.66 10.5003C1373.5 10.698 1373.34 10.8968 1373.18 11.0968C1373.14 11.1401 1373.11 11.1822 1373.07 11.2254C1372.89 11.4512 1372.72 11.6769 1372.54 11.905C1372.53 11.9214 1372.52 11.9389 1372.5 11.9553C1370.77 14.2068 1369.22 16.5249 1367.85 18.898C1367.85 18.9004 1367.85 18.9027 1367.84 18.9051C1367.69 19.1647 1367.55 19.4255 1367.4 19.6863C1367.4 19.6934 1367.39 19.7004 1367.39 19.7086C1367.24 19.9659 1367.1 20.2232 1366.96 20.4805C1366.96 20.4899 1366.95 20.4992 1366.95 20.5086C1366.81 20.7647 1366.67 21.022 1366.54 21.2793C1366.53 21.2887 1366.53 21.2992 1366.52 21.3086C1366.39 21.5671 1366.26 21.8255 1366.13 22.0852L1366.11 22.1098C1365.98 22.3717 1365.85 22.6337 1365.72 22.8969C1365.72 22.9016 1365.72 22.9074 1365.71 22.9121C1365.58 23.1799 1365.46 23.4478 1365.33 23.7168C1371.07 25.5917 1377.58 26.649 1384.48 26.649C1391.38 26.649 1397.92 25.587 1403.67 23.7063C1403.54 23.4373 1403.41 23.1682 1403.28 22.9004C1403.28 22.8969 1403.28 22.8934 1403.28 22.8899C1403.15 22.6256 1403.02 22.3612 1402.88 22.0981C1402.88 22.091 1402.88 22.0852 1402.87 22.0782C1402.74 21.8174 1402.61 21.5565 1402.47 21.2957C1402.47 21.2875 1402.47 21.2805 1402.46 21.2723C1402.33 21.0115 1402.19 20.7519 1402.05 20.4934C1402.04 20.4864 1402.04 20.4805 1402.04 20.4735C1401.9 20.2115 1401.75 19.9507 1401.61 19.6899C1401.61 19.6863 1401.6 19.6828 1401.6 19.6793C1400.12 17.0325 1398.43 14.45 1396.5 11.9506C1396.48 11.9307 1396.47 11.9108 1396.45 11.891C1396.28 11.6664 1396.1 11.443 1395.93 11.2196C1395.89 11.1763 1395.86 11.1331 1395.82 11.0898C1395.66 10.8909 1395.5 10.6933 1395.34 10.4956C1395.29 10.4371 1395.24 10.3775 1395.2 10.319C1395.05 10.1377 1394.9 9.95643 1394.74 9.77514C1394.68 9.70614 1394.62 9.63713 1394.57 9.56812C1394.42 9.39853 1394.28 9.22894 1394.13 9.06052C1394.06 8.98332 1393.99 8.9073 1393.93 8.8301C1393.79 8.66987 1393.64 8.5108 1393.5 8.35057C1393.43 8.2687 1393.35 8.18565 1393.28 8.10378C1393.14 7.95056 1393 7.79852 1392.86 7.64647C1392.78 7.55992 1392.7 7.47337 1392.62 7.38799C1392.48 7.24062 1392.35 7.09442 1392.21 6.94705C1392.12 6.85816 1392.04 6.7681 1391.95 6.67921C1391.81 6.53652 1391.68 6.39499 1391.54 6.25347C1391.45 6.16107 1391.36 6.06985 1391.27 5.97745C1391.13 5.83943 1390.99 5.70142 1390.86 5.56458C1390.76 5.47101 1390.67 5.37861 1390.57 5.28621L1390.57 5.28738Z"
          fill="#CAFBD1"/>
    <path d="M1383.55 59.8809C1383.25 59.4785 1382.86 59.1943 1382.41 58.9732C1381.91 58.7241 1381.37 58.5615 1380.83 58.4224C1380.29 58.2832 1379.74 58.1569 1379.2 58.013C1378.91 57.9358 1378.62 57.8352 1378.37 57.6539C1378.24 57.5557 1378.13 57.4364 1378.09 57.2703C1378.01 56.9089 1378.19 56.5264 1378.52 56.3288C1378.77 56.1814 1379.05 56.1159 1379.33 56.0984C1379.69 56.0761 1380.05 56.096 1380.4 56.1639C1381.13 56.303 1381.79 56.5943 1382.37 57.0504C1382.51 57.1557 1382.64 57.1416 1382.75 57.0071C1383.07 56.5908 1383.38 56.1732 1383.7 55.7545C1383.78 55.6574 1383.76 55.5182 1383.66 55.4422C1383.29 55.1475 1382.89 54.8984 1382.46 54.7019C1381.64 54.3264 1380.77 54.1463 1379.87 54.1615C1379.44 54.1685 1379.02 54.1907 1378.61 54.282C1378.04 54.4059 1377.52 54.6153 1377.05 54.9592C1376.54 55.3276 1376.18 55.7966 1375.98 56.3873C1375.84 56.7884 1375.81 57.199 1375.85 57.6188C1375.88 57.9475 1375.96 58.2621 1376.11 58.5569C1376.36 59.0633 1376.77 59.4224 1377.26 59.6961C1377.76 59.9756 1378.3 60.1534 1378.86 60.2961C1379.43 60.4446 1380.01 60.5814 1380.59 60.7312C1380.87 60.806 1381.15 60.9101 1381.41 61.0692C1381.9 61.3768 1381.94 61.9218 1381.6 62.3242C1381.48 62.4633 1381.33 62.5674 1381.17 62.647C1380.87 62.7908 1380.55 62.8516 1380.22 62.8692C1379.87 62.8879 1379.52 62.8657 1379.18 62.8014C1378.33 62.6423 1377.58 62.2774 1376.94 61.7043C1376.79 61.5651 1376.65 61.5815 1376.52 61.7499C1376.22 62.1651 1375.93 62.5803 1375.62 62.9955C1375.54 63.1206 1375.55 63.24 1375.67 63.3429C1376.4 63.9768 1377.24 64.4119 1378.19 64.6411C1378.69 64.7604 1379.19 64.8213 1379.81 64.8061C1380.2 64.8096 1380.69 64.7838 1381.18 64.6879C1381.68 64.5885 1382.16 64.4318 1382.6 64.1639C1383.55 63.5756 1384.02 62.7101 1384.05 61.6095C1384.05 61.3967 1384.04 61.1815 1384.01 60.9709C1383.95 60.5721 1383.8 60.2072 1383.56 59.882L1383.55 59.8809Z"
          fill="#CAFBD1"/>
    <path d="M1392.96 61.0084C1392.93 60.7218 1392.93 60.4341 1392.89 60.1487C1392.81 59.5241 1392.6 58.9393 1392.25 58.4072C1391.81 57.737 1391.21 57.2621 1390.46 56.9896C1390.06 56.8492 1389.66 56.7849 1389.24 56.765C1388.74 56.7416 1388.26 56.7966 1387.78 56.9545C1386.73 57.3066 1385.95 57.9791 1385.46 58.9639C1385.19 59.5007 1385.07 60.075 1385.06 60.6738C1385.06 61.0189 1385.07 61.3639 1385.14 61.7019C1385.43 62.9616 1386.16 63.8786 1387.33 64.4411C1387.82 64.6739 1388.33 64.799 1388.88 64.8025C1389.06 64.8037 1389.24 64.8107 1389.42 64.799C1389.68 64.7815 1389.94 64.7628 1390.2 64.7218C1390.93 64.6025 1391.6 64.3172 1392.21 63.8938C1392.35 63.7943 1392.37 63.6914 1392.27 63.5487C1392.07 63.2528 1391.86 62.9581 1391.66 62.6622C1391.55 62.509 1391.45 62.4902 1391.29 62.5955C1391 62.7932 1390.69 62.9452 1390.35 63.0446C1390.07 63.1288 1389.78 63.178 1389.48 63.1908C1389.26 63.2002 1389.04 63.2037 1388.82 63.1487C1387.97 62.93 1387.45 62.3978 1387.24 61.5522C1387.22 61.4551 1387.24 61.4341 1387.34 61.4341C1388.23 61.4341 1389.13 61.4341 1390.02 61.4341C1390.92 61.4341 1391.81 61.4341 1392.71 61.4341C1392.89 61.4341 1392.97 61.3429 1392.96 61.1627C1392.96 61.1101 1392.96 61.0575 1392.96 61.006V61.0084ZM1390.89 60.0575C1390.78 60.0575 1390.68 60.0575 1390.57 60.0575H1389.09C1388.5 60.0575 1387.9 60.0575 1387.31 60.0575C1387.2 60.0575 1387.19 60.0434 1387.2 59.9347C1387.31 59.2961 1387.66 58.8376 1388.24 58.5499C1388.47 58.4364 1388.72 58.3873 1388.98 58.3756C1389.32 58.3592 1389.65 58.3884 1389.97 58.5417C1390.5 58.8013 1390.83 59.2165 1390.95 59.7885C1390.96 59.8458 1390.97 59.9042 1390.98 59.9627C1390.98 60.0423 1390.97 60.0563 1390.89 60.0563L1390.89 60.0575Z"
          fill="#CAFBD1"/>
    <path d="M1401.42 94.8356C1409.67 77.0459 1414.95 48.9229 1404.16 24.7753L1404.04 24.815C1397.95 26.8069 1391.37 27.8174 1384.48 27.8174C1377.59 27.8174 1371.04 26.8104 1364.96 24.8256L1364.84 24.7858C1354.06 48.931 1359.33 77.0483 1367.58 94.8356C1367.58 94.8356 1346.42 105.713 1361.31 127H1361.34C1361.89 112.81 1372.04 101.502 1384.48 101.502C1396.92 101.502 1407.07 112.81 1407.63 127H1407.69C1422.58 105.713 1401.42 94.8356 1401.42 94.8356H1401.42ZM1397.25 67.2821C1397.25 67.4026 1397.22 67.4973 1397.09 67.5371H1373.32C1373.2 67.4985 1373.16 67.4084 1373.17 67.2891C1373.17 67.2868 1373.17 67.2844 1373.17 67.2821C1373.17 59.1335 1373.17 50.9849 1373.17 42.8363C1373.17 42.7977 1373.17 42.7579 1373.18 42.7193C1373.19 42.6515 1373.23 42.6058 1373.31 42.593C1373.34 42.586 1373.38 42.5836 1373.41 42.5836C1380.65 42.5836 1387.88 42.5836 1395.12 42.5836C1395.14 42.5836 1395.16 42.5836 1395.18 42.5836C1395.33 42.5953 1395.4 42.7322 1395.31 42.8538C1395.3 42.8702 1395.29 42.8854 1395.28 42.9018C1394.65 43.7497 1394.02 44.5965 1393.39 45.4445C1391.96 47.372 1390.53 49.2983 1389.1 51.2258C1389 51.365 1388.84 51.3732 1388.72 51.2457C1388.58 51.096 1388.44 50.9439 1388.31 50.7931C1387.71 50.1369 1387.12 49.4808 1386.52 48.8258C1386.39 48.6796 1386.22 48.6843 1386.11 48.8375C1385.69 49.379 1385.27 49.9217 1384.85 50.4644C1384.74 50.6024 1384.75 50.7077 1384.87 50.8305C1385.23 51.1942 1385.58 51.5568 1385.94 51.9206C1386.89 52.8878 1387.84 53.8562 1388.79 54.8235C1388.92 54.9545 1389.06 54.9545 1389.18 54.8235C1389.97 53.9475 1390.76 53.0714 1391.55 52.1954C1392.26 51.4118 1392.96 50.6281 1393.67 49.8445C1394.56 48.8503 1395.46 47.8574 1396.35 46.8644C1396.55 46.641 1396.76 46.4176 1396.96 46.1954C1397.01 46.1357 1397.08 46.1217 1397.14 46.1486C1397.21 46.1778 1397.25 46.2339 1397.25 46.3076C1397.25 46.3486 1397.25 46.3907 1397.25 46.4316C1397.25 53.3826 1397.25 60.3335 1397.25 67.2833L1397.25 67.2821Z"
          fill="#CAFBD1"/>
    <defs>
        <radialGradient id="paint0_radial_1034_2505" cx="0" cy="0" r="1" gradientUnits="userSpaceOnUse"
                        gradientTransform="translate(1502.76 57.0563) rotate(90.9223) scale(1281.13 2118.22)">
            <stop stop-color="#CAFBD1"/>
            <stop offset="1" stop-color="#CAFBD1" stop-opacity="0"/>
        </radialGradient>
    </defs>
</svg>
