<svg width="1440" height="895" viewBox="0 0 1440 750" fill="none" xmlns="http://www.w3.org/2000/svg">
    <path d="M-1 691.819C920.127 691.819 1381.33 782.117 1379.33 132.963C1379.33 123.43 1391.82 123.932 1391.82 132.963C1391.82 360.993 1413.98 516.829 1440 632.621V897H-1V691.819Z"
          fill="url(#paint0_radial_876_2560)"/>
    <path d="M1390.57 5.28787C1390.43 5.1522 1390.29 5.01769 1390.15 4.88319C1390.06 4.78962 1389.96 4.69488 1389.86 4.60131C1389.72 4.46915 1389.58 4.33698 1389.44 4.20599C1389.34 4.11125 1389.24 4.01768 1389.14 3.92295C1389 3.79195 1388.85 3.66212 1388.71 3.5323C1388.61 3.43873 1388.5 3.34516 1388.4 3.25276C1388.26 3.12294 1388.11 2.99428 1387.96 2.86563C1387.86 2.77323 1387.76 2.68083 1387.65 2.58843C1387.5 2.4586 1387.35 2.32995 1387.2 2.20129C1387.09 2.11123 1386.99 2.02117 1386.89 1.93228C1386.73 1.79895 1386.57 1.66678 1386.41 1.53345C1386.31 1.44924 1386.21 1.36503 1386.11 1.28199C1385.93 1.13695 1385.75 0.993094 1385.57 0.848063C1385.48 0.777887 1385.4 0.707711 1385.31 0.638705C1385.04 0.425837 1384.77 0.21297 1384.5 0.00244141C1384.23 0.21297 1383.96 0.425837 1383.69 0.638705C1383.6 0.707711 1383.52 0.779057 1383.43 0.848063C1383.25 0.991924 1383.07 1.13695 1382.9 1.28199C1382.8 1.36503 1382.7 1.44924 1382.59 1.53345C1382.44 1.66678 1382.27 1.79895 1382.12 1.93228C1382.01 2.02117 1381.91 2.11123 1381.8 2.20129C1381.65 2.32995 1381.5 2.45977 1381.35 2.5896C1381.24 2.682 1381.14 2.7744 1381.04 2.86796C1380.89 2.99662 1380.74 3.12528 1380.6 3.2551C1380.5 3.34867 1380.39 3.44224 1380.29 3.53698C1380.15 3.6668 1380 3.79663 1379.86 3.92645C1379.76 4.02002 1379.66 4.11476 1379.56 4.2095C1379.42 4.34049 1379.28 4.47266 1379.14 4.60482C1379.04 4.69839 1378.94 4.79313 1378.85 4.8867C1378.71 5.0212 1378.57 5.15571 1378.43 5.29021C1378.33 5.38378 1378.24 5.47618 1378.15 5.56974C1378.01 5.70659 1377.87 5.8446 1377.73 5.98261C1377.64 6.07384 1377.55 6.16624 1377.46 6.25864C1377.32 6.40016 1377.19 6.54168 1377.05 6.6832C1376.96 6.77326 1376.88 6.86215 1376.79 6.95221C1376.65 7.09841 1376.52 7.24461 1376.38 7.39081C1376.3 7.47736 1376.22 7.56392 1376.14 7.65047C1376 7.80251 1375.86 7.95456 1375.72 8.10778C1375.65 8.19082 1375.57 8.27269 1375.5 8.35574C1375.35 8.5148 1375.21 8.67504 1375.07 8.83527C1375.01 8.91247 1374.94 8.98849 1374.87 9.06568C1374.72 9.23411 1374.58 9.4037 1374.43 9.57329C1374.38 9.6423 1374.32 9.7113 1374.26 9.78031C1374.11 9.9616 1373.95 10.1429 1373.8 10.3242C1373.76 10.3827 1373.71 10.4423 1373.66 10.5008C1373.5 10.6984 1373.34 10.8973 1373.18 11.0973C1373.14 11.1406 1373.11 11.1827 1373.07 11.2259C1372.89 11.4517 1372.72 11.6774 1372.54 11.9055C1372.53 11.9219 1372.52 11.9394 1372.5 11.9558C1370.77 14.2073 1369.22 16.5254 1367.85 18.8985C1367.85 18.9009 1367.85 18.9032 1367.84 18.9055C1367.69 19.1652 1367.55 19.426 1367.4 19.6868C1367.4 19.6939 1367.39 19.7009 1367.39 19.7091C1367.24 19.9664 1367.1 20.2237 1366.96 20.481C1366.96 20.4904 1366.95 20.4997 1366.95 20.5091C1366.81 20.7652 1366.67 21.0225 1366.54 21.2798C1366.53 21.2892 1366.53 21.2997 1366.52 21.3091C1366.39 21.5676 1366.26 21.826 1366.13 22.0857L1366.11 22.1102C1365.98 22.3722 1365.85 22.6342 1365.72 22.8974C1365.72 22.9021 1365.72 22.9079 1365.71 22.9126C1365.58 23.1804 1365.46 23.4483 1365.33 23.7173C1371.07 25.5922 1377.58 26.6495 1384.48 26.6495C1391.38 26.6495 1397.92 25.5875 1403.67 23.7068C1403.54 23.4377 1403.41 23.1687 1403.28 22.9009C1403.28 22.8974 1403.28 22.8939 1403.28 22.8904C1403.15 22.626 1403.02 22.3617 1402.88 22.0986C1402.88 22.0915 1402.88 22.0857 1402.87 22.0787C1402.74 21.8178 1402.61 21.557 1402.47 21.2962C1402.47 21.288 1402.47 21.281 1402.46 21.2728C1402.33 21.012 1402.19 20.7523 1402.05 20.4939C1402.04 20.4868 1402.04 20.481 1402.04 20.474C1401.9 20.212 1401.75 19.9512 1401.61 19.6903C1401.61 19.6868 1401.6 19.6833 1401.6 19.6798C1400.12 17.033 1398.43 14.4505 1396.5 11.9511C1396.48 11.9312 1396.47 11.9113 1396.45 11.8914C1396.28 11.6669 1396.1 11.4435 1395.93 11.2201C1395.89 11.1768 1395.86 11.1335 1395.82 11.0903C1395.66 10.8914 1395.5 10.6938 1395.34 10.4961C1395.29 10.4376 1395.24 10.378 1395.2 10.3195C1395.05 10.1382 1394.9 9.95692 1394.74 9.77563C1394.68 9.70663 1394.62 9.63762 1394.57 9.56861C1394.42 9.39902 1394.28 9.22943 1394.13 9.06101C1394.06 8.98381 1393.99 8.90779 1393.93 8.83059C1393.79 8.67036 1393.64 8.51129 1393.5 8.35106C1393.43 8.26918 1393.35 8.18614 1393.28 8.10427C1393.14 7.95105 1393 7.799 1392.86 7.64696C1392.78 7.56041 1392.7 7.47386 1392.62 7.38847C1392.48 7.2411 1392.35 7.0949 1392.21 6.94754C1392.12 6.85865 1392.04 6.76859 1391.95 6.6797C1391.81 6.537 1391.68 6.39548 1391.54 6.25396C1391.45 6.16156 1391.36 6.07033 1391.27 5.97794C1391.13 5.83992 1390.99 5.70191 1390.86 5.56507C1390.76 5.4715 1390.67 5.3791 1390.57 5.2867L1390.57 5.28787Z"
          fill="#714A00"/>
    <path d="M1383.55 59.8813C1383.25 59.479 1382.86 59.1948 1382.41 58.9737C1381.91 58.7246 1381.37 58.562 1380.83 58.4229C1380.29 58.2837 1379.74 58.1574 1379.2 58.0135C1378.91 57.9363 1378.62 57.8357 1378.37 57.6544C1378.24 57.5562 1378.13 57.4369 1378.09 57.2708C1378.01 56.9094 1378.19 56.5269 1378.52 56.3293C1378.77 56.1819 1379.05 56.1164 1379.33 56.0989C1379.69 56.0766 1380.05 56.0965 1380.4 56.1644C1381.13 56.3035 1381.79 56.5948 1382.37 57.0509C1382.51 57.1562 1382.64 57.1421 1382.75 57.0076C1383.07 56.5913 1383.38 56.1737 1383.7 55.755C1383.78 55.6579 1383.76 55.5187 1383.66 55.4427C1383.29 55.148 1382.89 54.8988 1382.46 54.7024C1381.64 54.3269 1380.77 54.1468 1379.87 54.162C1379.44 54.169 1379.02 54.1912 1378.61 54.2825C1378.04 54.4064 1377.52 54.6158 1377.05 54.9597C1376.54 55.3281 1376.18 55.7971 1375.98 56.3877C1375.84 56.7889 1375.81 57.1994 1375.85 57.6193C1375.88 57.948 1375.96 58.2626 1376.11 58.5574C1376.36 59.0638 1376.77 59.4229 1377.26 59.6965C1377.76 59.9761 1378.3 60.1539 1378.86 60.2966C1379.43 60.4451 1380.01 60.5819 1380.59 60.7316C1380.87 60.8065 1381.15 60.9106 1381.41 61.0697C1381.9 61.3773 1381.94 61.9223 1381.6 62.3246C1381.48 62.4638 1381.33 62.5679 1381.17 62.6475C1380.87 62.7913 1380.55 62.8521 1380.22 62.8697C1379.87 62.8884 1379.52 62.8662 1379.18 62.8018C1378.33 62.6428 1377.58 62.2779 1376.94 61.7048C1376.79 61.5656 1376.65 61.5819 1376.52 61.7504C1376.22 62.1656 1375.93 62.5808 1375.62 62.996C1375.54 63.1211 1375.55 63.2404 1375.67 63.3434C1376.4 63.9773 1377.24 64.4124 1378.19 64.6416C1378.69 64.7609 1379.19 64.8217 1379.81 64.8065C1380.2 64.8101 1380.69 64.7843 1381.18 64.6884C1381.68 64.589 1382.16 64.4323 1382.6 64.1644C1383.55 63.5761 1384.02 62.7106 1384.05 61.61C1384.05 61.3971 1384.04 61.1819 1384.01 60.9714C1383.95 60.5726 1383.8 60.2077 1383.56 59.8825L1383.55 59.8813Z"
          fill="#714A00"/>
    <path d="M1392.96 61.0088C1392.93 60.7223 1392.93 60.4346 1392.89 60.1492C1392.81 59.5246 1392.6 58.9398 1392.25 58.4076C1391.81 57.7375 1391.21 57.2626 1390.46 56.9901C1390.06 56.8497 1389.66 56.7854 1389.24 56.7655C1388.74 56.7421 1388.26 56.7971 1387.78 56.955C1386.73 57.3071 1385.95 57.9796 1385.46 58.9644C1385.19 59.5012 1385.07 60.0755 1385.06 60.6743C1385.06 61.0194 1385.07 61.3644 1385.14 61.7024C1385.43 62.9621 1386.16 63.879 1387.33 64.4416C1387.82 64.6744 1388.33 64.7995 1388.88 64.803C1389.06 64.8042 1389.24 64.8112 1389.42 64.7995C1389.68 64.782 1389.94 64.7633 1390.2 64.7223C1390.93 64.603 1391.6 64.3176 1392.21 63.8942C1392.35 63.7948 1392.37 63.6919 1392.27 63.5492C1392.07 63.2533 1391.86 62.9586 1391.66 62.6627C1391.55 62.5094 1391.45 62.4907 1391.29 62.596C1391 62.7937 1390.69 62.9457 1390.35 63.0451C1390.07 63.1293 1389.78 63.1785 1389.48 63.1913C1389.26 63.2007 1389.04 63.2042 1388.82 63.1492C1387.97 62.9305 1387.45 62.3983 1387.24 61.5527C1387.22 61.4556 1387.24 61.4346 1387.34 61.4346C1388.23 61.4346 1389.13 61.4346 1390.02 61.4346C1390.92 61.4346 1391.81 61.4346 1392.71 61.4346C1392.89 61.4346 1392.97 61.3433 1392.96 61.1632C1392.96 61.1106 1392.96 61.058 1392.96 61.0065V61.0088ZM1390.89 60.058C1390.78 60.058 1390.68 60.058 1390.57 60.058H1389.09C1388.5 60.058 1387.9 60.058 1387.31 60.058C1387.2 60.058 1387.19 60.0439 1387.2 59.9351C1387.31 59.2965 1387.66 58.8381 1388.24 58.5503C1388.47 58.4369 1388.72 58.3878 1388.98 58.3761C1389.32 58.3597 1389.65 58.3889 1389.97 58.5422C1390.5 58.8018 1390.83 59.217 1390.95 59.7889C1390.96 59.8463 1390.97 59.9047 1390.98 59.9632C1390.98 60.0427 1390.97 60.0568 1390.89 60.0568L1390.89 60.058Z"
          fill="#714A00"/>
    <path d="M1401.42 94.8361C1409.67 77.0464 1414.95 48.9234 1404.16 24.7758L1404.04 24.8155C1397.95 26.8074 1391.37 27.8179 1384.48 27.8179C1377.59 27.8179 1371.04 26.8109 1364.96 24.826L1364.84 24.7863C1354.06 48.9315 1359.33 77.0488 1367.58 94.8361C1367.58 94.8361 1346.42 105.713 1361.31 127H1361.34C1361.89 112.81 1372.04 101.503 1384.48 101.503C1396.92 101.503 1407.07 112.81 1407.63 127H1407.69C1422.58 105.713 1401.42 94.8361 1401.42 94.8361H1401.42ZM1397.25 67.2826C1397.25 67.4031 1397.22 67.4978 1397.09 67.5376H1373.32C1373.2 67.499 1373.16 67.4089 1373.17 67.2896C1373.17 67.2873 1373.17 67.2849 1373.17 67.2826C1373.17 59.134 1373.17 50.9854 1373.17 42.8367C1373.17 42.7981 1373.17 42.7584 1373.18 42.7198C1373.19 42.6519 1373.23 42.6063 1373.31 42.5935C1373.34 42.5865 1373.38 42.5841 1373.41 42.5841C1380.65 42.5841 1387.88 42.5841 1395.12 42.5841C1395.14 42.5841 1395.16 42.5841 1395.18 42.5841C1395.33 42.5958 1395.4 42.7326 1395.31 42.8543C1395.3 42.8707 1395.29 42.8859 1395.28 42.9022C1394.65 43.7502 1394.02 44.597 1393.39 45.445C1391.96 47.3725 1390.53 49.2988 1389.1 51.2263C1389 51.3655 1388.84 51.3737 1388.72 51.2462C1388.58 51.0965 1388.44 50.9444 1388.31 50.7935C1387.71 50.1374 1387.12 49.4813 1386.52 48.8263C1386.39 48.6801 1386.22 48.6848 1386.11 48.838C1385.69 49.3795 1385.27 49.9222 1384.85 50.4649C1384.74 50.6029 1384.75 50.7082 1384.87 50.831C1385.23 51.1947 1385.58 51.5573 1385.94 51.921C1386.89 52.8883 1387.84 53.8567 1388.79 54.824C1388.92 54.955 1389.06 54.955 1389.18 54.824C1389.97 53.948 1390.76 53.0719 1391.55 52.1959C1392.26 51.4123 1392.96 50.6286 1393.67 49.845C1394.56 48.8508 1395.46 47.8578 1396.35 46.8649C1396.55 46.6415 1396.76 46.4181 1396.96 46.1958C1397.01 46.1362 1397.08 46.1222 1397.14 46.1491C1397.21 46.1783 1397.25 46.2344 1397.25 46.3081C1397.25 46.3491 1397.25 46.3912 1397.25 46.4321C1397.25 53.383 1397.25 60.334 1397.25 67.2838L1397.25 67.2826Z"
          fill="#714A00"/>
    <defs>
        <radialGradient id="paint0_radial_876_2560" cx="0" cy="0" r="1" gradientUnits="userSpaceOnUse"
                        gradientTransform="translate(1388.5 25.5977) rotate(92.9946) scale(1866.35 3001.13)">
            <stop stop-color="#714A00"/>
            <stop offset="1" stop-color="#DB9000"/>
        </radialGradient>
    </defs>
</svg>
