<svg width="1841" height="2765" viewBox="0 0 1841 2765" fill="none" xmlns="http://www.w3.org/2000/svg">
<path d="M1179 272.245C943.593 272.245 588.5 122.773 120.5 293.273L5 1461.28L1716.32 1575.78C1729.48 1020.62 1893.72 82.2523 1822.5 19.7463C1701.15 -86.7534 1765.32 272.245 1179 272.245Z" fill="#FEF0D3"/>
<path d="M1251 558.006C1015.59 558.006 701.5 830.507 94.5 741.007L0 1930.04L1711.32 2044.54C1724.48 1489.38 1888.72 551.014 1817.5 488.508C1696.15 382.008 1837.32 558.006 1251 558.006Z" fill="#FCE2AF"/>
<path d="M906 1289.81C670.593 1289.81 222 880.311 90.4642 1050.81L0 2650.31L1711.32 2764.81C1724.48 2209.64 1703.58 1161.82 1632.35 1099.31C1511 992.811 1245 1289.81 906 1289.81Z" fill="#FDD68A"/>
<path d="M1295.44 2063.55C1123.87 2063.55 398.275 1773.92 113.914 1932.99L21 2568.27H1604V1932.99C1558.34 1976.51 1432.69 2063.55 1295.44 2063.55Z" fill="#FCC55B"/>
<path d="M129 2360.09C1050.13 2360.09 1511.33 2450.39 1509.33 1801.24C1509.33 1791.7 1521.82 1792.21 1521.82 1801.24C1521.82 2029.27 1543.98 2185.1 1570 2300.89V2565.27H129V2360.09Z" fill="url(#paint0_radial_865_2329)"/>
<path d="M1520.57 1673.56C1520.43 1673.43 1520.29 1673.29 1520.15 1673.16C1520.06 1673.06 1519.96 1672.97 1519.86 1672.87C1519.72 1672.74 1519.58 1672.61 1519.44 1672.48C1519.34 1672.38 1519.24 1672.29 1519.14 1672.2C1519 1672.07 1518.85 1671.94 1518.71 1671.81C1518.61 1671.71 1518.5 1671.62 1518.4 1671.53C1518.26 1671.4 1518.11 1671.27 1517.96 1671.14C1517.86 1671.05 1517.76 1670.95 1517.65 1670.86C1517.5 1670.73 1517.35 1670.6 1517.2 1670.47C1517.09 1670.38 1516.99 1670.29 1516.89 1670.21C1516.73 1670.07 1516.57 1669.94 1516.41 1669.81C1516.31 1669.72 1516.21 1669.64 1516.11 1669.56C1515.93 1669.41 1515.75 1669.27 1515.57 1669.12C1515.48 1669.05 1515.4 1668.98 1515.31 1668.91C1515.04 1668.7 1514.77 1668.49 1514.5 1668.28C1514.23 1668.49 1513.96 1668.7 1513.69 1668.91C1513.6 1668.98 1513.52 1669.05 1513.43 1669.12C1513.25 1669.27 1513.07 1669.41 1512.9 1669.56C1512.8 1669.64 1512.7 1669.72 1512.59 1669.81C1512.44 1669.94 1512.27 1670.07 1512.12 1670.21C1512.01 1670.29 1511.91 1670.38 1511.8 1670.47C1511.65 1670.6 1511.5 1670.73 1511.35 1670.86C1511.24 1670.96 1511.14 1671.05 1511.04 1671.14C1510.89 1671.27 1510.74 1671.4 1510.6 1671.53C1510.5 1671.62 1510.39 1671.72 1510.29 1671.81C1510.15 1671.94 1510 1672.07 1509.86 1672.2C1509.76 1672.29 1509.66 1672.39 1509.56 1672.48C1509.42 1672.61 1509.28 1672.75 1509.14 1672.88C1509.04 1672.97 1508.94 1673.07 1508.85 1673.16C1508.71 1673.29 1508.57 1673.43 1508.43 1673.56C1508.33 1673.66 1508.24 1673.75 1508.15 1673.84C1508.01 1673.98 1507.87 1674.12 1507.73 1674.26C1507.64 1674.35 1507.55 1674.44 1507.46 1674.53C1507.32 1674.67 1507.19 1674.82 1507.05 1674.96C1506.96 1675.05 1506.88 1675.14 1506.79 1675.23C1506.65 1675.37 1506.52 1675.52 1506.38 1675.66C1506.3 1675.75 1506.22 1675.84 1506.14 1675.92C1506 1676.08 1505.86 1676.23 1505.72 1676.38C1505.65 1676.46 1505.57 1676.55 1505.5 1676.63C1505.35 1676.79 1505.21 1676.95 1505.07 1677.11C1505.01 1677.19 1504.94 1677.26 1504.87 1677.34C1504.72 1677.51 1504.58 1677.68 1504.43 1677.85C1504.38 1677.92 1504.32 1677.98 1504.26 1678.05C1504.11 1678.23 1503.95 1678.42 1503.8 1678.6C1503.76 1678.66 1503.71 1678.72 1503.66 1678.77C1503.5 1678.97 1503.34 1679.17 1503.18 1679.37C1503.14 1679.41 1503.11 1679.46 1503.07 1679.5C1502.89 1679.73 1502.72 1679.95 1502.54 1680.18C1502.53 1680.2 1502.52 1680.21 1502.5 1680.23C1500.77 1682.48 1499.22 1684.8 1497.85 1687.17C1497.85 1687.17 1497.85 1687.18 1497.84 1687.18C1497.69 1687.44 1497.55 1687.7 1497.4 1687.96C1497.4 1687.97 1497.39 1687.97 1497.39 1687.98C1497.24 1688.24 1497.1 1688.5 1496.96 1688.75C1496.96 1688.76 1496.95 1688.77 1496.95 1688.78C1496.81 1689.04 1496.67 1689.3 1496.54 1689.55C1496.53 1689.56 1496.53 1689.57 1496.52 1689.58C1496.39 1689.84 1496.26 1690.1 1496.13 1690.36L1496.11 1690.38C1495.98 1690.65 1495.85 1690.91 1495.72 1691.17C1495.72 1691.18 1495.72 1691.18 1495.71 1691.19C1495.58 1691.45 1495.46 1691.72 1495.33 1691.99C1501.07 1693.87 1507.58 1694.92 1514.48 1694.92C1521.38 1694.92 1527.92 1693.86 1533.67 1691.98C1533.54 1691.71 1533.41 1691.44 1533.28 1691.17C1533.28 1691.17 1533.28 1691.17 1533.28 1691.16C1533.15 1690.9 1533.02 1690.64 1532.88 1690.37C1532.88 1690.36 1532.88 1690.36 1532.87 1690.35C1532.74 1690.09 1532.61 1689.83 1532.47 1689.57C1532.47 1689.56 1532.47 1689.55 1532.46 1689.55C1532.33 1689.29 1532.19 1689.03 1532.05 1688.77C1532.04 1688.76 1532.04 1688.75 1532.04 1688.75C1531.9 1688.49 1531.75 1688.22 1531.61 1687.96C1531.61 1687.96 1531.6 1687.96 1531.6 1687.95C1530.12 1685.31 1528.43 1682.72 1526.5 1680.22C1526.48 1680.2 1526.47 1680.18 1526.45 1680.16C1526.28 1679.94 1526.1 1679.72 1525.93 1679.49C1525.89 1679.45 1525.86 1679.41 1525.82 1679.36C1525.66 1679.16 1525.5 1678.97 1525.34 1678.77C1525.29 1678.71 1525.24 1678.65 1525.2 1678.59C1525.05 1678.41 1524.9 1678.23 1524.74 1678.05C1524.68 1677.98 1524.62 1677.91 1524.57 1677.84C1524.42 1677.67 1524.28 1677.5 1524.13 1677.33C1524.06 1677.26 1523.99 1677.18 1523.93 1677.1C1523.79 1676.94 1523.64 1676.78 1523.5 1676.62C1523.43 1676.54 1523.35 1676.46 1523.28 1676.38C1523.14 1676.22 1523 1676.07 1522.86 1675.92C1522.78 1675.83 1522.7 1675.75 1522.62 1675.66C1522.48 1675.51 1522.35 1675.37 1522.21 1675.22C1522.12 1675.13 1522.04 1675.04 1521.95 1674.95C1521.81 1674.81 1521.68 1674.67 1521.54 1674.53C1521.45 1674.43 1521.36 1674.34 1521.27 1674.25C1521.13 1674.11 1520.99 1673.98 1520.86 1673.84C1520.76 1673.74 1520.67 1673.65 1520.57 1673.56L1520.57 1673.56Z" fill="#714A00"/>
<path d="M1513.55 1728.15C1513.25 1727.75 1512.86 1727.47 1512.41 1727.25C1511.91 1727 1511.37 1726.84 1510.83 1726.7C1510.29 1726.56 1509.74 1726.43 1509.2 1726.29C1508.91 1726.21 1508.62 1726.11 1508.37 1725.93C1508.24 1725.83 1508.13 1725.71 1508.09 1725.54C1508.01 1725.18 1508.19 1724.8 1508.52 1724.6C1508.77 1724.46 1509.05 1724.39 1509.33 1724.37C1509.69 1724.35 1510.05 1724.37 1510.4 1724.44C1511.13 1724.58 1511.79 1724.87 1512.37 1725.32C1512.51 1725.43 1512.64 1725.42 1512.75 1725.28C1513.07 1724.86 1513.38 1724.45 1513.7 1724.03C1513.78 1723.93 1513.76 1723.79 1513.66 1723.72C1513.29 1723.42 1512.89 1723.17 1512.46 1722.98C1511.64 1722.6 1510.77 1722.42 1509.87 1722.44C1509.44 1722.44 1509.02 1722.46 1508.61 1722.56C1508.04 1722.68 1507.52 1722.89 1507.05 1723.23C1506.54 1723.6 1506.18 1724.07 1505.98 1724.66C1505.84 1725.06 1505.81 1725.47 1505.85 1725.89C1505.88 1726.22 1505.96 1726.54 1506.11 1726.83C1506.36 1727.34 1506.77 1727.7 1507.26 1727.97C1507.76 1728.25 1508.3 1728.43 1508.86 1728.57C1509.43 1728.72 1510.01 1728.86 1510.59 1729.01C1510.87 1729.08 1511.15 1729.18 1511.41 1729.34C1511.9 1729.65 1511.94 1730.2 1511.6 1730.6C1511.48 1730.74 1511.33 1730.84 1511.17 1730.92C1510.87 1731.06 1510.55 1731.13 1510.22 1731.14C1509.87 1731.16 1509.52 1731.14 1509.18 1731.08C1508.33 1730.92 1507.58 1730.55 1506.94 1729.98C1506.79 1729.84 1506.65 1729.86 1506.52 1730.02C1506.22 1730.44 1505.93 1730.85 1505.62 1731.27C1505.54 1731.39 1505.55 1731.51 1505.67 1731.62C1506.4 1732.25 1507.24 1732.69 1508.19 1732.91C1508.69 1733.03 1509.19 1733.1 1509.81 1733.08C1510.2 1733.08 1510.69 1733.06 1511.18 1732.96C1511.68 1732.86 1512.16 1732.71 1512.6 1732.44C1513.55 1731.85 1514.02 1730.98 1514.05 1729.88C1514.05 1729.67 1514.04 1729.46 1514.01 1729.24C1513.95 1728.85 1513.8 1728.48 1513.56 1728.16L1513.55 1728.15Z" fill="#714A00"/>
<path d="M1522.96 1729.28C1522.93 1729 1522.93 1728.71 1522.89 1728.42C1522.81 1727.8 1522.6 1727.21 1522.25 1726.68C1521.81 1726.01 1521.21 1725.54 1520.46 1725.26C1520.06 1725.12 1519.66 1725.06 1519.24 1725.04C1518.74 1725.02 1518.26 1725.07 1517.78 1725.23C1516.73 1725.58 1515.95 1726.25 1515.46 1727.24C1515.19 1727.77 1515.07 1728.35 1515.06 1728.95C1515.06 1729.29 1515.07 1729.64 1515.14 1729.98C1515.43 1731.24 1516.16 1732.15 1517.33 1732.71C1517.82 1732.95 1518.33 1733.07 1518.88 1733.08C1519.06 1733.08 1519.24 1733.08 1519.42 1733.07C1519.68 1733.06 1519.94 1733.04 1520.2 1733C1520.93 1732.88 1521.6 1732.59 1522.21 1732.17C1522.35 1732.07 1522.37 1731.97 1522.27 1731.82C1522.07 1731.53 1521.86 1731.23 1521.66 1730.94C1521.55 1730.78 1521.45 1730.76 1521.29 1730.87C1521 1731.07 1520.69 1731.22 1520.35 1731.32C1520.07 1731.4 1519.78 1731.45 1519.48 1731.46C1519.26 1731.47 1519.04 1731.48 1518.82 1731.42C1517.97 1731.2 1517.45 1730.67 1517.24 1729.83C1517.22 1729.73 1517.24 1729.71 1517.34 1729.71C1518.23 1729.71 1519.13 1729.71 1520.02 1729.71C1520.92 1729.71 1521.81 1729.71 1522.71 1729.71C1522.89 1729.71 1522.97 1729.62 1522.96 1729.44C1522.96 1729.38 1522.96 1729.33 1522.96 1729.28V1729.28ZM1520.89 1728.33C1520.78 1728.33 1520.68 1728.33 1520.57 1728.33H1519.09C1518.5 1728.33 1517.9 1728.33 1517.31 1728.33C1517.2 1728.33 1517.19 1728.32 1517.2 1728.21C1517.31 1727.57 1517.66 1727.11 1518.24 1726.82C1518.47 1726.71 1518.72 1726.66 1518.98 1726.65C1519.32 1726.63 1519.65 1726.66 1519.97 1726.82C1520.5 1727.08 1520.83 1727.49 1520.95 1728.06C1520.96 1728.12 1520.97 1728.18 1520.98 1728.24C1520.98 1728.32 1520.97 1728.33 1520.89 1728.33L1520.89 1728.33Z" fill="#714A00"/>
<path d="M1531.42 1763.11C1539.67 1745.32 1544.95 1717.2 1534.16 1693.05L1534.04 1693.09C1527.95 1695.08 1521.37 1696.09 1514.48 1696.09C1507.59 1696.09 1501.04 1695.08 1494.96 1693.1L1494.84 1693.06C1484.06 1717.2 1489.33 1745.32 1497.58 1763.11C1497.58 1763.11 1476.42 1773.99 1491.31 1795.27H1491.34C1491.89 1781.08 1502.04 1769.78 1514.48 1769.78C1526.92 1769.78 1537.07 1781.08 1537.63 1795.27H1537.69C1552.58 1773.99 1531.42 1763.11 1531.42 1763.11H1531.42ZM1527.25 1735.56C1527.25 1735.68 1527.22 1735.77 1527.09 1735.81H1503.32C1503.2 1735.77 1503.16 1735.68 1503.17 1735.56C1503.17 1735.56 1503.17 1735.56 1503.17 1735.56C1503.17 1727.41 1503.17 1719.26 1503.17 1711.11C1503.17 1711.07 1503.17 1711.03 1503.18 1710.99C1503.19 1710.93 1503.23 1710.88 1503.31 1710.87C1503.34 1710.86 1503.38 1710.86 1503.41 1710.86C1510.65 1710.86 1517.88 1710.86 1525.12 1710.86C1525.14 1710.86 1525.16 1710.86 1525.18 1710.86C1525.33 1710.87 1525.4 1711.01 1525.31 1711.13C1525.3 1711.14 1525.29 1711.16 1525.28 1711.18C1524.65 1712.02 1524.02 1712.87 1523.39 1713.72C1521.96 1715.65 1520.53 1717.57 1519.1 1719.5C1519 1719.64 1518.84 1719.65 1518.72 1719.52C1518.58 1719.37 1518.44 1719.22 1518.31 1719.07C1517.71 1718.41 1517.12 1717.75 1516.52 1717.1C1516.39 1716.95 1516.22 1716.96 1516.11 1717.11C1515.69 1717.65 1515.27 1718.2 1514.85 1718.74C1514.74 1718.88 1514.75 1718.98 1514.87 1719.1C1515.23 1719.47 1515.58 1719.83 1515.94 1720.19C1516.89 1721.16 1517.84 1722.13 1518.79 1723.1C1518.92 1723.23 1519.06 1723.23 1519.18 1723.1C1519.97 1722.22 1520.76 1721.35 1521.55 1720.47C1522.26 1719.69 1522.96 1718.9 1523.67 1718.12C1524.56 1717.12 1525.46 1716.13 1526.35 1715.14C1526.55 1714.91 1526.76 1714.69 1526.96 1714.47C1527.01 1714.41 1527.08 1714.4 1527.14 1714.42C1527.21 1714.45 1527.25 1714.51 1527.25 1714.58C1527.25 1714.62 1527.25 1714.66 1527.25 1714.71C1527.25 1721.66 1527.25 1728.61 1527.25 1735.56L1527.25 1735.56Z" fill="#714A00"/>
<defs>
<radialGradient id="paint0_radial_865_2329" cx="0" cy="0" r="1" gradientUnits="userSpaceOnUse" gradientTransform="translate(1774.56 78.8922) rotate(91.2417) scale(5746.13 3837.15)">
<stop stop-color="#714A00"/>
<stop offset="1" stop-color="#DB9000"/>
</radialGradient>
</defs>
</svg>
