<?xml version="1.0" standalone="no"?>
<!DOCTYPE svg PUBLIC "-//W3C//DTD SVG 20010904//EN"
 "http://www.w3.org/TR/2001/REC-SVG-20010904/DTD/svg10.dtd">
<svg version="1.0" xmlns="http://www.w3.org/2000/svg"
 width="1280.000000pt" height="1280.000000pt" viewBox="0 0 1280.000000 1280.000000"
 preserveAspectRatio="xMidYMid meet">

<g transform="translate(0.000000,1280.000000) scale(0.100000,-0.100000)"
fill="#000000" stroke="none">
<path d="M6205 11085 c-569 -57 -1041 -188 -1530 -424 -1027 -497 -1823 -1374
-2235 -2461 -131 -345 -212 -679 -267 -1100 -26 -197 -26 -846 0 -1040 38
-282 79 -493 137 -701 403 -1453 1472 -2593 2876 -3069 293 -99 589 -165 934
-207 205 -25 715 -25 920 0 713 87 1327 304 1900 670 429 274 838 651 1142
1053 445 587 747 1286 867 2003 50 294 56 379 56 771 0 392 -6 477 -56 771
-206 1231 -917 2330 -1950 3016 -727 483 -1570 736 -2438 732 -124 -1 -284 -7
-356 -14z m-2045 -3405 l0 -460 25 -16 c15 -10 34 -14 50 -10 28 7 29 3 40
-96 7 -67 2 -70 -103 -70 -87 1 -148 31 -182 93 l-25 44 -3 488 -3 487 101 0
100 0 0 -460z m5852 -1 c3 -447 4 -461 23 -475 13 -10 31 -13 51 -9 31 5 31 5
38 -41 12 -88 8 -113 -16 -118 -91 -19 -165 -8 -215 30 -20 15 -45 48 -57 73
-20 44 -21 61 -24 509 -2 255 -1 470 2 478 4 11 28 14 100 14 l95 0 3 -461z
m-1400 239 l3 -93 113 -3 112 -3 0 -74 0 -74 -112 -3 -113 -3 -3 -155 c-4
-199 3 -256 33 -286 28 -28 78 -32 130 -10 40 17 37 20 68 -67 l24 -66 -21
-14 c-40 -26 -97 -39 -172 -39 -120 1 -195 45 -236 138 -8 19 -14 108 -18 264
l-5 235 -57 3 -58 3 0 74 0 74 58 3 57 3 3 76 3 77 87 15 c48 8 90 15 94 16 4
0 9 -41 10 -91z m-5011 -103 c62 -21 124 -76 155 -136 28 -56 47 -177 37 -244
l-6 -45 -253 0 c-139 0 -255 -3 -257 -7 -3 -5 1 -30 8 -56 36 -142 224 -184
328 -75 21 22 44 38 51 35 7 -3 38 -21 69 -41 65 -42 65 -45 -1 -118 -72 -79
-193 -114 -336 -97 -181 23 -289 131 -318 322 -36 236 82 434 283 477 59 12
183 4 240 -15z m1300 0 c62 -21 124 -76 155 -136 28 -56 47 -177 37 -244 l-6
-45 -253 0 c-139 0 -255 -3 -257 -7 -3 -5 1 -30 8 -56 36 -142 224 -184 328
-75 21 22 44 38 51 35 7 -3 38 -21 69 -41 65 -42 65 -45 -1 -118 -72 -79 -193
-114 -336 -97 -181 23 -289 131 -318 322 -36 236 82 434 283 477 59 12 183 4
240 -15z m914 -5 c29 -14 54 -37 72 -65 15 -25 30 -44 33 -44 3 0 19 19 37 43
47 64 108 91 208 90 119 0 172 -32 217 -129 22 -48 23 -62 26 -357 l4 -308
-101 0 -101 0 0 263 c0 151 -5 278 -11 299 -13 50 -54 72 -120 66 -63 -6 -96
-30 -122 -86 -20 -43 -22 -68 -25 -294 l-4 -248 -94 0 -94 0 0 258 c0 145 -5
273 -10 294 -16 57 -53 81 -118 76 -63 -6 -99 -29 -127 -84 -18 -35 -20 -63
-23 -291 l-4 -253 -99 0 -99 0 0 390 0 390 95 0 95 0 0 -50 c0 -27 4 -50 9
-50 6 0 29 21 53 46 32 33 57 50 93 60 65 18 153 11 210 -16z m1277 10 c71
-20 130 -71 168 -144 33 -64 34 -72 35 -174 l0 -107 -259 -3 -259 -2 6 -36
c20 -123 119 -185 246 -154 37 9 60 22 86 51 19 21 40 39 45 39 6 0 36 -17 68
-37 31 -21 59 -38 60 -39 12 -7 -16 -51 -58 -93 -68 -68 -136 -93 -257 -93
-253 0 -393 143 -393 402 0 135 28 216 103 297 72 79 175 116 297 108 41 -2
92 -9 112 -15z m952 -8 c24 -11 55 -36 70 -55 51 -67 56 -104 56 -424 l0 -293
-94 0 -95 0 -3 273 c-3 303 -8 324 -69 346 -84 29 -176 -3 -213 -74 -19 -37
-21 -59 -24 -292 l-3 -253 -99 0 -100 0 0 390 0 390 95 0 95 0 0 -55 c0 -60 9
-68 34 -31 24 38 83 78 134 93 60 17 159 10 216 -15z m1389 8 c48 -14 102 -61
130 -114 20 -38 22 -57 25 -269 3 -211 5 -228 23 -237 10 -6 29 -8 42 -5 23 6
24 3 30 -47 12 -97 13 -95 -46 -108 -97 -20 -176 11 -214 83 l-14 28 -29 -39
c-41 -57 -103 -84 -193 -84 -80 1 -116 11 -165 48 -63 49 -98 169 -72 250 30
95 102 142 265 175 126 26 163 41 175 74 13 34 -5 74 -40 93 -58 30 -190 -4
-264 -68 -41 -36 -38 -38 -90 40 l-36 54 33 34 c38 40 133 87 202 101 57 11
182 7 238 -9z m-2013 -1728 c58 -43 63 -121 10 -174 -23 -23 -37 -28 -75 -28
-52 0 -99 21 -115 49 -15 30 -12 104 6 130 36 51 121 62 174 23z m-2198 -443
c3 -447 4 -461 23 -475 13 -10 31 -13 51 -9 31 5 31 5 38 -41 12 -88 8 -113
-16 -118 -91 -19 -165 -8 -215 30 -20 15 -45 48 -57 73 -20 44 -21 61 -24 509
-2 255 -1 470 2 478 4 11 28 14 100 14 l95 0 3 -461z m-1417 150 c87 -16 185
-71 185 -104 0 -6 -25 -35 -55 -65 l-55 -54 -22 22 c-35 32 -91 52 -147 52
-86 0 -123 -32 -107 -93 7 -29 53 -50 156 -72 92 -19 193 -67 218 -103 82
-118 41 -282 -87 -346 -64 -32 -93 -38 -191 -37 -122 0 -204 28 -272 91 l-53
49 62 62 62 63 44 -41 c57 -53 108 -69 205 -65 38 2 82 40 82 72 0 43 -49 76
-147 98 -116 27 -173 54 -217 102 -92 102 -62 263 60 332 81 45 171 57 279 37z
m847 -9 c71 -20 130 -71 168 -144 33 -64 34 -72 35 -174 l0 -107 -259 -3 -259
-2 6 -36 c20 -123 119 -185 246 -154 37 9 60 22 86 51 19 21 40 39 45 39 6 0
36 -17 68 -37 31 -21 59 -38 60 -39 12 -7 -16 -51 -58 -93 -68 -68 -136 -93
-257 -93 -253 0 -393 143 -393 402 0 135 28 216 103 297 72 79 175 116 297
108 41 -2 92 -9 112 -15z m1300 0 c71 -20 130 -71 168 -144 33 -64 34 -72 35
-174 l0 -107 -259 -3 -259 -2 6 -36 c20 -123 119 -185 246 -154 37 9 60 22 86
51 19 21 40 39 45 39 6 0 36 -17 68 -37 31 -21 59 -38 60 -39 12 -7 -16 -51
-58 -93 -68 -68 -136 -93 -257 -93 -253 0 -393 143 -393 402 0 135 28 216 103
297 72 79 175 116 297 108 41 -2 92 -9 112 -15z m952 -8 c24 -11 55 -36 70
-55 51 -67 56 -104 56 -424 l0 -293 -94 0 -95 0 -3 273 c-3 303 -8 324 -69
346 -84 29 -176 -3 -213 -74 -19 -37 -21 -59 -24 -292 l-3 -253 -99 0 -100 0
0 390 0 390 95 0 95 0 0 -55 c0 -60 9 -68 34 -31 24 38 83 78 134 93 60 17
159 10 216 -15z m2168 17 c41 -9 62 -21 93 -53 22 -23 46 -50 53 -61 10 -17
14 -17 19 -5 16 39 90 98 142 114 144 42 274 -11 315 -130 13 -40 16 -97 16
-351 l0 -303 -95 0 -95 0 0 253 c0 138 -5 270 -10 292 -13 57 -49 85 -109 85
-60 0 -108 -30 -136 -85 -18 -36 -20 -64 -23 -292 l-4 -253 -99 0 -99 0 0 286
0 286 -29 29 c-58 57 -167 32 -215 -51 -19 -32 -21 -54 -24 -292 l-3 -258
-100 0 -99 0 0 390 0 390 95 0 95 0 0 -50 c0 -27 3 -50 7 -50 3 0 26 20 49 45
64 67 146 87 256 64z m-1632 -399 l0 -390 -95 0 -95 0 0 390 0 390 95 0 95 0
0 -390z m410 130 c0 -218 3 -266 17 -301 39 -98 195 -90 254 14 23 41 24 48
27 295 l3 252 100 0 99 0 0 -390 0 -390 -95 0 -95 0 0 53 c0 30 -3 57 -6 60
-4 4 -22 -13 -40 -37 -48 -63 -105 -88 -202 -88 -119 0 -180 32 -225 117 -21
38 -22 55 -25 358 l-3 317 95 0 96 0 0 -260z"/>
<path d="M3359 7657 c-34 -22 -79 -96 -79 -129 0 -17 11 -18 163 -16 l162 3
-3 35 c-5 45 -25 83 -58 109 -39 30 -138 30 -185 -2z"/>
<path d="M4659 7657 c-34 -22 -79 -96 -79 -129 0 -17 11 -18 163 -16 l162 3
-3 35 c-5 45 -25 83 -58 109 -39 30 -138 30 -185 -2z"/>
<path d="M6862 7659 c-34 -22 -67 -76 -73 -119 l-4 -25 163 -3 162 -2 0 27
c-1 45 -35 110 -69 127 -45 24 -138 21 -179 -5z"/>
<path d="M9365 7415 c-11 -7 -54 -20 -97 -29 -99 -22 -128 -47 -128 -111 0
-83 75 -125 165 -91 62 24 87 68 93 161 5 77 -1 90 -33 70z"/>
<path d="M4422 5629 c-34 -22 -67 -76 -73 -119 l-4 -25 163 -3 162 -2 0 27
c-1 45 -35 110 -69 127 -45 24 -138 21 -179 -5z"/>
<path d="M5722 5629 c-34 -22 -67 -76 -73 -119 l-4 -25 163 -3 162 -2 0 27
c-1 45 -35 110 -69 127 -45 24 -138 21 -179 -5z"/>
</g>
</svg>
